<?xml version="1.0" encoding="utf-8"?>
<!-- Generator: Adobe Illustrator 24.0.0, SVG Export Plug-In . SVG Version: 6.00 Build 0)  -->
<svg version="1.1" xmlns="http://www.w3.org/2000/svg" xmlns:xlink="http://www.w3.org/1999/xlink" x="0px" y="0px"
	 viewBox="0 0 500 500" style="enable-background:new 0 0 500 500;" xml:space="preserve">
<style type="text/css">
	.st0{fill:#FFFFFF;}
	.st1{fill:#BBEBFB;}
	.st2{fill:none;}
	.st3{fill:#B5C1C6;}
	.st4{fill:#C7D2D7;}
	.st5{fill:#DFE7EA;}
	.st6{opacity:0.2;fill:#455A64;}
	.st7{fill:#D5FBFC;}
	.st8{fill:#AEDBE5;}
	.st9{fill:#D9F2F9;}
	.st10{enable-background:new    ;}
	.st11{fill:#9CAAD1;}
	.st12{fill:#6680B1;}
	.st13{fill:#A34262;}
	.st14{fill:#FF7373;}
	.st15{fill:#5E72AC;}
	.st16{fill:#FF9F55;}
	.st17{fill:#FFC77E;}
	.st18{fill:#3C3970;}
	.st19{fill:none;stroke:#FFFFFF;stroke-width:0;stroke-linecap:round;stroke-linejoin:round;}
	.st20{fill:#4D578F;}
	.st21{opacity:0.2;fill:#FFFFFF;}
	.st22{fill:#FF634C;}
	.st23{fill:#5D71AB;}
	.st24{opacity:0.2;}
	.st25{fill:#E5B7A1;}
</style>
<g id="BACKGROUND">
	<rect class="st0" width="500" height="500"/>
</g>
<g id="OBJECTS">
	<g>
		<g>
			
				<ellipse transform="matrix(2.835371e-03 -1 1 2.835371e-03 -86.89 585.2243)" class="st1" cx="250" cy="336.18" rx="137.82" ry="237.95"/>
		</g>
		<g>
			<g>
				<g>
					<path class="st2" d="M260.33,72.55c0.05,0.21,0.1,0.42,0.15,0.62C260.43,72.97,260.37,72.76,260.33,72.55z"/>
					<polygon class="st2" points="298.32,83.56 298.31,83.55 298.31,83.56 					"/>
					<path class="st2" d="M298.9,88.52C298.9,88.52,298.9,88.52,298.9,88.52c-0.01-0.21-0.03-0.42-0.04-0.62c0,0,0,0,0,0
						C298.87,88.11,298.88,88.31,298.9,88.52z"/>
					<path class="st2" d="M265.04,82.81c0.11,0.16,0.23,0.31,0.34,0.46C265.26,83.12,265.15,82.97,265.04,82.81z"/>
					<path class="st2" d="M260.16,65.24c-0.03,0.15-0.07,0.29-0.1,0.44C260.09,65.53,260.12,65.38,260.16,65.24z"/>
					<path class="st2" d="M260.47,64.13c-0.05,0.14-0.1,0.28-0.14,0.42C260.38,64.41,260.42,64.27,260.47,64.13z"/>
					<path class="st2" d="M261.38,62.28c-0.07,0.1-0.13,0.21-0.19,0.31C261.26,62.48,261.32,62.38,261.38,62.28z"/>
					<path class="st2" d="M260.88,63.15c-0.06,0.12-0.12,0.25-0.17,0.38C260.77,63.4,260.82,63.27,260.88,63.15z"/>
					<path class="st2" d="M280.74,90.29C280.74,90.29,280.74,90.29,280.74,90.29C280.74,90.29,280.74,90.29,280.74,90.29z"/>
					<path class="st2" d="M263,60.63c-0.12,0.08-0.25,0.16-0.36,0.25C262.75,60.79,262.88,60.72,263,60.63z"/>
					<path class="st2" d="M261.97,61.52c-0.06,0.06-0.11,0.14-0.16,0.21C261.86,61.66,261.91,61.59,261.97,61.52z"/>
					<path class="st2" d="M298.79,94.23c0.12-1.08,0.18-2.22,0.18-3.4c0,0,0,0,0-0.01c0,0,0,0,0,0.01
						C298.97,92.01,298.91,93.15,298.79,94.23z"/>
					<path class="st2" d="M261.08,40.78C261.08,40.78,261.08,40.78,261.08,40.78c-0.17-0.01-0.33-0.01-0.5-0.02l0,0
						C260.74,40.77,260.91,40.77,261.08,40.78z"/>
					<path class="st2" d="M259.42,40.77C259.42,40.77,259.42,40.77,259.42,40.77c-0.16,0.01-0.32,0.01-0.48,0.02c0,0,0,0,0,0
						C259.1,40.79,259.26,40.78,259.42,40.77z"/>
					<path class="st2" d="M257.69,40.94C257.69,40.94,257.69,40.94,257.69,40.94c-0.07,0.01-0.15,0.02-0.23,0.03c0,0,0,0,0,0
						C257.54,40.96,257.61,40.96,257.69,40.94z"/>
					<path class="st2" d="M254.77,41.75c-0.3,0.12-0.6,0.24-0.89,0.39C254.17,41.99,254.47,41.87,254.77,41.75
						C254.77,41.75,254.77,41.75,254.77,41.75z"/>
					<path class="st2" d="M261.76,40.83c0.29,0.02,0.57,0.06,0.86,0.1C262.33,40.89,262.05,40.86,261.76,40.83z"/>
					<path class="st2" d="M290.44,63.24c-0.31-0.52-0.64-1.03-0.96-1.54c0,0,0,0,0,0C289.81,62.22,290.13,62.73,290.44,63.24z"/>
					<path class="st2" d="M281.36,51.59C281.36,51.59,281.36,51.59,281.36,51.59c-0.42-0.42-0.85-0.84-1.28-1.24l10.69-6.21
						l-10.69,6.21C280.52,50.75,280.94,51.17,281.36,51.59z"/>
					<path class="st2" d="M284.19,54.62L284.19,54.62c-0.19-0.22-0.39-0.44-0.59-0.66c0,0,0,0.01,0.01,0.01
						C283.8,54.19,284,54.4,284.19,54.62z"/>
					<path class="st2" d="M282.81,53.09C282.81,53.09,282.81,53.09,282.81,53.09c-0.21-0.23-0.43-0.45-0.64-0.67c0,0,0,0,0,0.01
						C282.38,52.64,282.6,52.86,282.81,53.09z"/>
					<path class="st2" d="M288.09,59.63C288.09,59.63,288.09,59.63,288.09,59.63c-0.06-0.09-0.13-0.18-0.2-0.27c0,0,0,0,0,0
						C287.96,59.45,288.02,59.54,288.09,59.63z"/>
					<path class="st2" d="M286.4,57.35c-0.11-0.14-0.22-0.29-0.33-0.43c0,0,0,0,0,0C286.18,57.06,286.29,57.2,286.4,57.35z"/>
					<path class="st2" d="M256.08,41.29c-0.08,0.02-0.16,0.05-0.24,0.08C255.92,41.34,256,41.32,256.08,41.29
						C256.08,41.29,256.08,41.29,256.08,41.29z"/>
					<path class="st2" d="M264.43,81.93c-0.08-0.12-0.16-0.23-0.24-0.35c0,0,0,0,0,0C264.27,81.7,264.35,81.81,264.43,81.93z"/>
					<path class="st2" d="M263.42,80.32c-0.04-0.07-0.08-0.15-0.12-0.22c0,0,0,0,0,0C263.34,80.18,263.38,80.25,263.42,80.32z"/>
					<path class="st2" d="M262.7,79C262.7,79,262.7,79.01,262.7,79c-0.06-0.12-0.13-0.24-0.19-0.37c0,0,0,0,0,0
						C262.58,78.76,262.64,78.88,262.7,79z"/>
					<path class="st2" d="M266.41,84.56C266.41,84.56,266.41,84.56,266.41,84.56c-0.16-0.19-0.32-0.38-0.48-0.58c0,0,0,0,0,0
						C266.09,84.18,266.25,84.37,266.41,84.56z"/>
					<path class="st2" d="M261.95,77.44c-0.02-0.05-0.05-0.1-0.07-0.15C261.91,77.34,261.93,77.39,261.95,77.44
						C261.95,77.44,261.95,77.44,261.95,77.44z"/>
					<path class="st2" d="M267.69,85.96C267.69,85.96,267.69,85.96,267.69,85.96c-0.28-0.28-0.55-0.57-0.82-0.87c0,0,0,0,0,0
						C267.14,85.39,267.41,85.68,267.69,85.96z"/>
					<path class="st2" d="M259.92,70.02C259.92,70.02,259.92,70.02,259.92,70.02c-0.06-0.6-0.1-1.2-0.1-1.79
						c0,0.45,0.02,0.9,0.05,1.36C259.89,69.73,259.91,69.87,259.92,70.02z"/>
					<path class="st2" d="M261.34,75.95C261.34,75.95,261.34,75.95,261.34,75.95c-0.05-0.13-0.1-0.27-0.15-0.4c0,0,0,0,0,0
						C261.25,75.68,261.29,75.81,261.34,75.95z"/>
					<path class="st2" d="M260.19,71.88c-0.06-0.33-0.12-0.65-0.17-0.98C260.07,71.22,260.13,71.55,260.19,71.88
						C260.19,71.88,260.19,71.88,260.19,71.88z"/>
					<path class="st2" d="M268.63,86.87c-0.14-0.13-0.28-0.25-0.41-0.39v0C268.35,86.61,268.49,86.74,268.63,86.87z"/>
					<path class="st2" d="M259.94,66.5c-0.02,0.14-0.04,0.27-0.05,0.41C259.9,66.76,259.92,66.63,259.94,66.5z"/>
					<path class="st2" d="M260.87,74.56C260.87,74.56,260.87,74.56,260.87,74.56c-0.05-0.17-0.1-0.34-0.15-0.5c0,0,0,0,0,0
						C260.76,74.22,260.81,74.39,260.87,74.56z"/>
					<path class="st2" d="M274.56,90.57c-0.02-0.01-0.05-0.02-0.07-0.03c0.01,0,0.03,0.01,0.04,0.01
						C274.54,90.56,274.55,90.56,274.56,90.57z"/>
					<path class="st2" d="M279.06,90.93c-0.07,0.02-0.13,0.03-0.2,0.05c0.01,0,0.02,0,0.02-0.01
						C278.94,90.96,279,90.94,279.06,90.93z"/>
					<path class="st2" d="M277.96,91.08c-0.07,0-0.15,0-0.22,0c0.02,0,0.04,0,0.06,0C277.85,91.08,277.9,91.09,277.96,91.08z"/>
					<path class="st2" d="M275.98,90.93c-0.17-0.03-0.34-0.07-0.51-0.11c0,0,0.01,0,0.01,0C275.65,90.87,275.82,90.9,275.98,90.93z"
						/>
					<path class="st2" d="M276.99,91.07c-0.12-0.01-0.25-0.02-0.37-0.04c0.01,0,0.02,0,0.02,0
						C276.76,91.05,276.88,91.06,276.99,91.07z"/>
					<path class="st2" d="M279.95,90.66c-0.07,0.03-0.15,0.05-0.22,0.08c0.01,0,0.03-0.01,0.04-0.01
						C279.83,90.7,279.89,90.68,279.95,90.66z"/>
					<path class="st2" d="M283.87,83.78c-0.37-0.18-0.75-0.36-1.13-0.58c-0.4-0.23-0.78-0.48-1.17-0.74
						c-0.12-0.08-0.25-0.18-0.37-0.27c-0.26-0.19-0.52-0.38-0.77-0.58c-0.14-0.11-0.28-0.23-0.42-0.35c-0.23-0.2-0.47-0.4-0.69-0.61
						c-0.14-0.13-0.28-0.25-0.41-0.39c-0.18-0.17-0.35-0.35-0.52-0.52c-0.28-0.28-0.55-0.57-0.82-0.87
						c-0.16-0.18-0.32-0.35-0.47-0.53c-0.16-0.19-0.32-0.38-0.48-0.58c-0.19-0.23-0.37-0.47-0.55-0.71
						c-0.11-0.15-0.23-0.31-0.34-0.46c-0.21-0.29-0.41-0.58-0.61-0.88c-0.08-0.12-0.16-0.23-0.24-0.35
						c-0.27-0.41-0.53-0.83-0.77-1.26c-0.04-0.07-0.08-0.14-0.12-0.22c-0.21-0.36-0.41-0.73-0.6-1.1c-0.06-0.12-0.13-0.24-0.19-0.37
						c-0.2-0.39-0.38-0.79-0.56-1.19c-0.02-0.05-0.05-0.1-0.07-0.15c-0.19-0.45-0.37-0.9-0.54-1.35c-0.05-0.13-0.1-0.27-0.14-0.4
						c-0.12-0.33-0.23-0.66-0.33-0.98c-0.05-0.17-0.1-0.34-0.15-0.5c-0.09-0.29-0.16-0.59-0.23-0.88c-0.05-0.21-0.11-0.42-0.15-0.63
						c-0.05-0.22-0.09-0.45-0.13-0.67c-0.06-0.33-0.12-0.65-0.17-0.98c-0.04-0.3-0.08-0.59-0.11-0.88
						c-0.01-0.14-0.03-0.29-0.04-0.43c-0.03-0.46-0.06-0.91-0.05-1.36c0-0.55,0.04-1.07,0.09-1.57c0.5,0.22,1.01,0.46,1.52,0.76
						c6.78,3.91,12.26,13.4,12.23,21.19c0,0.55-0.04,1.07-0.09,1.57c-0.04-0.02-0.08-0.03-0.12-0.05
						C284.06,83.87,283.97,83.83,283.87,83.78z"/>
					<path class="st2" d="M269.74,87.82c0.25,0.2,0.51,0.39,0.77,0.58c0.12,0.09,0.24,0.18,0.37,0.27c0.39,0.26,0.78,0.52,1.17,0.74
						c-1.08-0.62-2.12-1.4-3.12-2.28c0.13,0.11,0.26,0.23,0.39,0.34C269.46,87.59,269.6,87.71,269.74,87.82z"/>
					<path class="st2" d="M273.46,90.13c-0.46-0.21-0.93-0.44-1.41-0.71c0.38,0.22,0.75,0.41,1.13,0.58
						C273.27,90.04,273.37,90.09,273.46,90.13z"/>
					<path class="st3" d="M239.15,69.58l6.53-3.79c0.06,0.43,0.13,0.86,0.2,1.28L239.15,69.58z"/>
					<path class="st3" d="M289.69,108.76l-0.57,3.44l-10.69,6.21l1.48-9.01C283.57,110.21,286.89,109.96,289.69,108.76z"/>
					<path class="st3" d="M259.94,66.5c0.03-0.28,0.07-0.56,0.12-0.82c0.03-0.15,0.06-0.29,0.1-0.44c0.05-0.23,0.11-0.47,0.18-0.69
						c0.04-0.14,0.09-0.28,0.14-0.42c0.07-0.21,0.15-0.41,0.24-0.61c0.06-0.13,0.11-0.25,0.17-0.38c0.1-0.19,0.2-0.38,0.31-0.56
						c0.06-0.1,0.12-0.21,0.19-0.31c0.13-0.19,0.27-0.37,0.42-0.55c0.06-0.07,0.11-0.14,0.16-0.21c0.21-0.23,0.43-0.44,0.67-0.64
						c0.11-0.09,0.24-0.17,0.36-0.25c1.93-1.35,4.6-1.5,7.61-0.19c-0.05,0.5-0.09,1.02-0.09,1.57c0,0.45,0.02,0.9,0.05,1.36
						c0.01,0.14,0.03,0.29,0.04,0.43c0.03,0.29,0.06,0.59,0.11,0.88c0.05,0.32,0.11,0.65,0.17,0.98c0.04,0.22,0.08,0.45,0.13,0.67
						c0.05,0.21,0.1,0.42,0.15,0.63c0.07,0.29,0.15,0.58,0.23,0.88c0.05,0.17,0.1,0.34,0.15,0.5c0.1,0.33,0.21,0.66,0.33,0.98
						c0.05,0.13,0.09,0.27,0.14,0.4c0.17,0.45,0.35,0.9,0.54,1.35c0.02,0.05,0.05,0.1,0.07,0.15c0.18,0.4,0.37,0.8,0.56,1.19
						c0.06,0.12,0.12,0.25,0.19,0.37c0.19,0.37,0.39,0.74,0.6,1.1c0.04,0.07,0.08,0.14,0.12,0.22c0.25,0.43,0.51,0.84,0.77,1.26
						c0.08,0.12,0.16,0.23,0.24,0.35c0.2,0.3,0.4,0.59,0.61,0.88c0.11,0.16,0.23,0.31,0.34,0.46c0.18,0.24,0.37,0.48,0.55,0.71
						c0.16,0.2,0.31,0.39,0.48,0.58c0.15,0.18,0.31,0.36,0.47,0.53c0.27,0.3,0.54,0.59,0.82,0.87c0.17,0.18,0.35,0.35,0.52,0.52
						c0.14,0.13,0.27,0.26,0.41,0.39c0.23,0.21,0.46,0.41,0.69,0.61c0.14,0.12,0.28,0.23,0.42,0.35c0.25,0.2,0.51,0.39,0.77,0.58
						c0.12,0.09,0.24,0.18,0.37,0.27c0.39,0.26,0.77,0.52,1.17,0.74c0.38,0.22,0.75,0.41,1.13,0.58c0.1,0.05,0.19,0.09,0.29,0.13
						c0.04,0.02,0.08,0.03,0.12,0.05c-0.33,3.06-1.62,5.24-3.53,6.33c0,0,0,0,0,0c-0.25,0.14-0.52,0.26-0.79,0.37
						c-0.06,0.02-0.12,0.04-0.18,0.06c-0.01,0-0.03,0.01-0.04,0.01c-0.22,0.08-0.44,0.14-0.67,0.19c-0.06,0.01-0.12,0.03-0.18,0.04
						c-0.01,0-0.02,0-0.02,0.01c-0.29,0.06-0.59,0.09-0.9,0.11c-0.05,0-0.11,0-0.16,0c-0.02,0-0.04,0-0.06,0
						c-0.24,0.01-0.49,0-0.75-0.02c-0.12-0.01-0.23-0.02-0.35-0.04c-0.01,0-0.02,0-0.02,0c-0.21-0.02-0.42-0.06-0.64-0.1
						c-0.16-0.03-0.33-0.06-0.49-0.11c0,0-0.01,0-0.01,0c-0.3-0.07-0.6-0.15-0.91-0.26c-0.01,0-0.02-0.01-0.03-0.01
						c-0.01,0-0.03-0.01-0.04-0.01c-0.34-0.12-0.68-0.26-1.03-0.41c-0.1-0.04-0.19-0.09-0.29-0.13c-0.37-0.18-0.75-0.36-1.13-0.58
						c-0.4-0.23-0.78-0.48-1.17-0.74c-0.12-0.09-0.24-0.18-0.37-0.27c-0.26-0.19-0.52-0.38-0.77-0.58
						c-0.14-0.11-0.28-0.23-0.42-0.35c-0.13-0.11-0.26-0.23-0.39-0.34c-0.1-0.09-0.2-0.17-0.3-0.26c-0.14-0.13-0.28-0.25-0.41-0.39
						v0c-0.18-0.17-0.35-0.35-0.52-0.52c0,0,0,0,0,0c-0.28-0.28-0.55-0.57-0.82-0.87c0,0,0,0,0,0c-0.16-0.18-0.32-0.35-0.47-0.53
						c0,0,0,0,0,0c-0.16-0.19-0.32-0.38-0.48-0.58c0,0,0,0,0,0c-0.19-0.23-0.37-0.47-0.55-0.71c-0.11-0.15-0.23-0.31-0.34-0.46
						c-0.21-0.29-0.41-0.58-0.61-0.88c-0.08-0.12-0.16-0.23-0.24-0.35c0,0,0,0,0,0c-0.27-0.41-0.53-0.83-0.77-1.26
						c-0.04-0.07-0.08-0.15-0.12-0.22c0,0,0,0,0,0c-0.21-0.36-0.4-0.73-0.59-1.1c0,0,0,0,0,0c-0.06-0.12-0.13-0.24-0.19-0.37
						c0,0,0,0,0,0c-0.2-0.39-0.38-0.79-0.56-1.19c0,0,0,0,0,0c-0.02-0.05-0.05-0.1-0.07-0.15c-0.19-0.45-0.37-0.9-0.54-1.35
						c0,0,0,0,0,0c-0.05-0.13-0.1-0.27-0.14-0.4c0,0,0,0,0,0c-0.12-0.33-0.23-0.65-0.33-0.98c0,0,0,0,0,0
						c-0.05-0.17-0.1-0.34-0.15-0.5c0,0,0,0,0,0c-0.09-0.29-0.16-0.59-0.23-0.88c-0.05-0.21-0.11-0.42-0.15-0.62
						c-0.05-0.22-0.09-0.45-0.13-0.67c0,0,0,0,0,0c-0.06-0.33-0.12-0.65-0.17-0.98c-0.04-0.29-0.08-0.59-0.11-0.88c0,0,0,0,0,0
						c-0.01-0.15-0.03-0.29-0.04-0.44c-0.03-0.46-0.06-0.91-0.05-1.36c0-0.46,0.03-0.9,0.06-1.32
						C259.9,66.76,259.92,66.63,259.94,66.5z"/>
					<polygon class="st4" points="245.72,33.93 256.41,27.72 264.57,35.92 253.88,42.13 					"/>
					<path class="st3" d="M262.62,40.93c-0.29-0.04-0.58-0.07-0.86-0.1c-0.23-0.02-0.46-0.04-0.68-0.05c0,0,0,0,0,0
						c-0.17-0.01-0.33-0.01-0.5-0.02l0,0c-0.39-0.01-0.78-0.01-1.16,0.01c0,0,0,0,0,0c-0.16,0.01-0.32,0.01-0.48,0.02c0,0,0,0,0,0
						c-0.42,0.03-0.84,0.08-1.25,0.15c0,0,0,0,0,0c-0.08,0.01-0.15,0.02-0.23,0.03c0,0,0,0,0,0c-0.47,0.08-0.93,0.19-1.38,0.32
						c0,0,0,0,0,0c-0.08,0.02-0.16,0.05-0.24,0.08c-0.37,0.11-0.73,0.24-1.08,0.38c0,0,0,0,0,0c-0.3,0.12-0.6,0.24-0.89,0.39
						l10.69-6.21c0.2-0.1,0.41-0.19,0.62-0.28l-0.92,5.59C263.71,41.1,263.17,41.01,262.62,40.93z"/>
					<polygon class="st3" points="298.27,97.32 308.97,91.11 315.65,101.36 304.96,107.57 					"/>
					<polygon class="st4" points="315.65,101.36 309.16,110.48 298.47,116.69 304.96,107.57 					"/>
					<path class="st4" d="M298.79,94.23c0.12-1.08,0.18-2.22,0.18-3.4c0,0,0,0,0-0.01c0-0.76-0.03-1.53-0.07-2.3c0,0,0,0,0,0
						c-0.01-0.21-0.03-0.42-0.04-0.62c0,0,0,0,0,0c-0.11-1.43-0.28-2.88-0.54-4.34c0,0,0,0,0-0.01c0,0,0,0,0,0l6.72-2.51
						l-6.41-16.57l10.69-6.21l6.41,16.57l-6.52,3.79c0.03,0.23,0.07,0.45,0.1,0.68c0,0.03,0.01,0.07,0.02,0.1
						c0.01,0.09,0.02,0.18,0.03,0.27c0.08,0.67,0.15,1.34,0.2,2.01c0.02,0.21,0.03,0.42,0.04,0.63c0.05,0.77,0.08,1.55,0.08,2.31
						c-0.01,2.37-0.25,4.54-0.7,6.49l-10.69,6.21C298.5,96.34,298.67,95.31,298.79,94.23z"/>
					<path class="st4" d="M289.48,61.71C289.48,61.71,289.48,61.71,289.48,61.71c-0.45-0.7-0.91-1.4-1.39-2.08c0,0,0,0,0,0
						c-0.06-0.09-0.13-0.18-0.19-0.27c0,0,0,0,0,0c-0.48-0.68-0.98-1.35-1.49-2.01c-0.11-0.14-0.22-0.29-0.33-0.43c0,0,0,0,0,0
						c-0.61-0.78-1.24-1.55-1.88-2.29h0c-0.19-0.22-0.39-0.43-0.58-0.65c0,0,0,0-0.01-0.01c-0.26-0.29-0.52-0.59-0.79-0.88
						c0,0,0,0,0,0c-0.21-0.23-0.43-0.44-0.64-0.67c0,0,0,0,0-0.01c-0.27-0.28-0.53-0.55-0.8-0.82c0,0,0,0,0,0
						c-0.42-0.42-0.85-0.84-1.28-1.24l10.69-6.21c0.38,0.35,0.75,0.71,1.12,1.07c0.05,0.05,0.11,0.11,0.16,0.17
						c0.27,0.27,0.54,0.55,0.81,0.83c0.21,0.22,0.43,0.44,0.64,0.67c0.27,0.29,0.53,0.59,0.8,0.89c0.17,0.19,0.34,0.37,0.51,0.57
						c0.02,0.03,0.05,0.06,0.07,0.09c0.64,0.74,1.27,1.51,1.88,2.29c0.06,0.08,0.13,0.16,0.2,0.24c0.08,0.1,0.15,0.2,0.22,0.3
						c0.48,0.62,0.95,1.26,1.4,1.9c0.05,0.07,0.1,0.14,0.15,0.21c0.01,0.02,0.03,0.04,0.04,0.06c0.48,0.68,0.94,1.38,1.39,2.08
						c0.04,0.06,0.08,0.12,0.12,0.17c0.29,0.45,0.57,0.9,0.85,1.36l-10.69,6.21C290.13,62.73,289.81,62.22,289.48,61.71z"/>
					<polygon class="st3" points="278.66,39.66 289.35,33.45 290.78,44.14 280.08,50.35 					"/>
					<polygon class="st4" points="265.75,32.21 276.44,26 289.35,33.45 278.66,39.66 					"/>
					<polygon class="st3" points="290.44,63.24 301.13,57.03 309.31,58.26 298.62,64.47 					"/>
					<path class="st5" d="M239.15,69.58l6.41,16.57l8.18,1.23c2.92,4.82,6.44,9.24,10.36,12.89l1.42,10.69l12.91,7.45l1.48-9.01
						c3.65,0.82,6.97,0.56,9.78-0.64c0.21-0.09,0.42-0.17,0.62-0.27l8.16,8.2l6.49-9.12l-6.68-10.25c0.22-0.98,0.4-2.01,0.51-3.09
						c0.12-1.08,0.18-2.22,0.18-3.4c0,0,0,0,0-0.01c0-0.76-0.03-1.53-0.07-2.3c-0.01-0.21-0.03-0.42-0.04-0.63
						c-0.11-1.43-0.28-2.88-0.54-4.34c0,0,0-0.01,0-0.01l6.72-2.51l-6.41-16.57l-8.18-1.23c-0.31-0.52-0.64-1.03-0.96-1.54
						c-0.45-0.7-0.91-1.39-1.39-2.08c-0.06-0.09-0.13-0.18-0.2-0.27c-0.48-0.68-0.98-1.35-1.49-2.01c-0.11-0.14-0.22-0.29-0.33-0.43
						c-0.61-0.78-1.24-1.55-1.88-2.29c-0.19-0.22-0.39-0.44-0.59-0.66c-0.26-0.29-0.52-0.59-0.79-0.88
						c-0.21-0.23-0.43-0.45-0.64-0.67c-0.27-0.28-0.53-0.55-0.8-0.82c-0.42-0.42-0.85-0.84-1.28-1.24l-1.42-10.69l-12.91-7.45
						l-0.56,3.43l-0.92,5.59c-0.56-0.12-1.11-0.22-1.65-0.29c-0.29-0.04-0.58-0.07-0.86-0.1c-0.23-0.02-0.46-0.04-0.68-0.05
						c-0.17-0.01-0.33-0.01-0.5-0.02c-0.39-0.01-0.78-0.01-1.16,0.01c-0.16,0.01-0.32,0.01-0.48,0.02
						c-0.42,0.03-0.84,0.08-1.25,0.15c-0.08,0.01-0.16,0.02-0.23,0.03c-0.47,0.08-0.93,0.19-1.38,0.32
						c-0.08,0.02-0.16,0.05-0.24,0.08c-0.37,0.11-0.73,0.24-1.08,0.38c-0.3,0.12-0.6,0.24-0.89,0.39l-8.16-8.2l-6.49,9.12
						l6.69,10.25c-0.45,1.95-0.7,4.12-0.7,6.49c-0.01,1.96,0.16,3.97,0.46,6c0.06,0.43,0.13,0.86,0.2,1.28L239.15,69.58z
						 M259.82,68.23c0-0.46,0.03-0.9,0.06-1.32c0.01-0.14,0.03-0.27,0.05-0.41c0.03-0.28,0.07-0.56,0.12-0.82
						c0.03-0.15,0.06-0.29,0.1-0.44c0.05-0.23,0.11-0.47,0.18-0.69c0.04-0.14,0.09-0.28,0.14-0.42c0.07-0.21,0.15-0.41,0.24-0.61
						c0.06-0.13,0.11-0.25,0.17-0.38c0.1-0.19,0.2-0.38,0.31-0.56c0.06-0.1,0.12-0.21,0.19-0.31c0.13-0.19,0.27-0.37,0.42-0.55
						c0.06-0.07,0.11-0.14,0.16-0.21c0.21-0.23,0.43-0.44,0.67-0.64c0.11-0.09,0.24-0.17,0.36-0.25c1.93-1.35,4.6-1.5,7.61-0.19
						c0.5,0.22,1.01,0.46,1.52,0.76c6.78,3.91,12.26,13.4,12.23,21.19c0,0.55-0.04,1.07-0.09,1.57c-0.33,3.06-1.62,5.24-3.53,6.33
						c0,0,0,0,0,0c-0.25,0.14-0.52,0.26-0.79,0.37c-0.07,0.03-0.15,0.05-0.22,0.08c-0.22,0.08-0.44,0.14-0.67,0.19
						c-0.07,0.02-0.13,0.03-0.2,0.05c-0.29,0.06-0.59,0.09-0.9,0.11c-0.07,0-0.15,0-0.22,0c-0.24,0.01-0.49,0-0.75-0.02
						c-0.12-0.01-0.25-0.02-0.37-0.04c-0.21-0.02-0.42-0.06-0.64-0.1c-0.17-0.03-0.34-0.07-0.51-0.11c-0.3-0.07-0.6-0.15-0.91-0.26
						c-0.02-0.01-0.05-0.02-0.07-0.03c-0.34-0.12-0.68-0.26-1.03-0.41c-0.46-0.21-0.93-0.44-1.41-0.71
						c-1.08-0.62-2.12-1.4-3.12-2.28c-0.1-0.09-0.2-0.17-0.3-0.26c-0.14-0.13-0.28-0.25-0.41-0.39c-0.18-0.17-0.35-0.35-0.52-0.52
						c-0.28-0.28-0.55-0.57-0.82-0.87c-0.16-0.18-0.32-0.35-0.47-0.53c-0.16-0.19-0.32-0.38-0.48-0.58
						c-0.19-0.23-0.37-0.47-0.55-0.71c-0.11-0.15-0.23-0.31-0.34-0.46c-0.21-0.29-0.41-0.58-0.61-0.88
						c-0.08-0.12-0.16-0.23-0.24-0.35c-0.27-0.41-0.53-0.83-0.77-1.26c-0.04-0.07-0.08-0.15-0.12-0.22c-0.21-0.36-0.4-0.73-0.59-1.1
						c-0.06-0.12-0.13-0.25-0.19-0.37c-0.2-0.39-0.38-0.79-0.56-1.19c-0.02-0.05-0.05-0.1-0.07-0.15c-0.19-0.45-0.37-0.9-0.54-1.35
						c-0.05-0.14-0.1-0.27-0.15-0.4c-0.12-0.33-0.23-0.65-0.33-0.98c-0.05-0.17-0.11-0.34-0.15-0.51c-0.09-0.29-0.16-0.59-0.23-0.88
						c-0.05-0.21-0.11-0.42-0.15-0.62c-0.05-0.22-0.09-0.45-0.13-0.67c-0.06-0.33-0.12-0.65-0.17-0.98
						c-0.04-0.29-0.08-0.59-0.11-0.88C259.86,69.42,259.82,68.81,259.82,68.23z"/>
				</g>
				<g>
					<path class="st2" d="M207.73,62.49c0.03,0.13,0.06,0.26,0.09,0.38C207.8,62.75,207.76,62.62,207.73,62.49z"/>
					<polygon class="st2" points="231.12,69.27 231.12,69.26 231.12,69.26 					"/>
					<path class="st2" d="M231.48,72.32C231.48,72.32,231.48,72.32,231.48,72.32c-0.01-0.13-0.02-0.26-0.03-0.38c0,0,0,0,0,0
						C231.46,72.06,231.47,72.19,231.48,72.32z"/>
					<path class="st2" d="M210.63,68.81c0.07,0.1,0.14,0.19,0.21,0.28C210.77,69,210.7,68.9,210.63,68.81z"/>
					<path class="st2" d="M207.63,57.99c-0.02,0.09-0.04,0.18-0.06,0.27C207.59,58.17,207.61,58.08,207.63,57.99z"/>
					<path class="st2" d="M207.83,57.31c-0.03,0.08-0.06,0.17-0.09,0.26C207.77,57.48,207.8,57.39,207.83,57.31z"/>
					<path class="st2" d="M208.39,56.17c-0.04,0.06-0.08,0.13-0.12,0.19C208.31,56.29,208.34,56.23,208.39,56.17z"/>
					<path class="st2" d="M208.08,56.7c-0.04,0.07-0.07,0.15-0.11,0.23C208.01,56.86,208.04,56.78,208.08,56.7z"/>
					<path class="st2" d="M220.3,73.41C220.3,73.41,220.3,73.41,220.3,73.41C220.3,73.41,220.3,73.41,220.3,73.41z"/>
					<path class="st2" d="M209.38,55.16c-0.07,0.05-0.15,0.1-0.22,0.16C209.23,55.25,209.3,55.21,209.38,55.16z"/>
					<path class="st2" d="M208.75,55.7c-0.04,0.04-0.07,0.09-0.1,0.13C208.68,55.79,208.71,55.74,208.75,55.7z"/>
					<path class="st2" d="M231.41,75.83c0.07-0.67,0.11-1.36,0.11-2.09c0,0,0,0,0,0c0,0,0,0,0,0
						C231.52,74.47,231.48,75.17,231.41,75.83z"/>
					<path class="st2" d="M208.2,42.94L208.2,42.94c-0.1-0.01-0.2-0.01-0.31-0.01l0,0C207.99,42.93,208.09,42.93,208.2,42.94z"/>
					<path class="st2" d="M207.17,42.93C207.17,42.93,207.18,42.93,207.17,42.93c-0.1,0-0.2,0.01-0.29,0.01c0,0,0,0,0,0
						C206.98,42.94,207.08,42.94,207.17,42.93z"/>
					<path class="st2" d="M206.11,43.04C206.11,43.04,206.11,43.04,206.11,43.04c-0.05,0.01-0.09,0.01-0.14,0.02c0,0,0,0,0,0
						C206.02,43.05,206.07,43.04,206.11,43.04z"/>
					<path class="st2" d="M204.31,43.53c-0.19,0.07-0.37,0.15-0.55,0.24C203.94,43.68,204.13,43.6,204.31,43.53
						C204.31,43.53,204.31,43.53,204.31,43.53z"/>
					<path class="st2" d="M208.62,42.97c0.18,0.02,0.35,0.04,0.53,0.06C208.97,43,208.79,42.98,208.62,42.97z"/>
					<path class="st2" d="M226.27,56.76c-0.19-0.32-0.39-0.63-0.59-0.94c0,0,0,0,0,0C225.88,56.13,226.08,56.44,226.27,56.76z"/>
					<path class="st2" d="M220.68,49.59L220.68,49.59c-0.26-0.26-0.52-0.51-0.79-0.76l6.58-3.82l-6.58,3.82
						C220.16,49.08,220.42,49.33,220.68,49.59z"/>
					<path class="st2" d="M222.42,51.46L222.42,51.46c-0.12-0.14-0.24-0.27-0.36-0.41c0,0,0,0,0,0
						C222.18,51.19,222.3,51.32,222.42,51.46z"/>
					<path class="st2" d="M221.57,50.51C221.57,50.51,221.57,50.51,221.57,50.51c-0.13-0.14-0.26-0.28-0.4-0.41c0,0,0,0,0,0
						C221.31,50.24,221.44,50.37,221.57,50.51z"/>
					<path class="st2" d="M224.82,54.54C224.82,54.54,224.82,54.54,224.82,54.54c-0.04-0.06-0.08-0.11-0.12-0.17c0,0,0,0,0,0
						C224.74,54.43,224.78,54.48,224.82,54.54z"/>
					<path class="st2" d="M223.78,53.13c-0.07-0.09-0.14-0.18-0.2-0.26c0,0,0,0,0,0C223.65,52.96,223.72,53.04,223.78,53.13z"/>
					<path class="st2" d="M205.12,43.25c-0.05,0.01-0.1,0.03-0.14,0.05C205.03,43.28,205.07,43.26,205.12,43.25
						C205.12,43.25,205.12,43.25,205.12,43.25z"/>
					<path class="st2" d="M210.26,68.26c-0.05-0.07-0.1-0.14-0.15-0.22c0,0,0,0,0,0C210.16,68.12,210.21,68.19,210.26,68.26z"/>
					<path class="st2" d="M209.64,67.27c-0.03-0.04-0.05-0.09-0.08-0.14c0,0,0,0,0,0C209.59,67.18,209.61,67.23,209.64,67.27z"/>
					<path class="st2" d="M209.2,66.46C209.2,66.46,209.2,66.46,209.2,66.46c-0.04-0.07-0.08-0.15-0.11-0.23c0,0,0,0,0,0
						C209.12,66.31,209.16,66.39,209.2,66.46z"/>
					<path class="st2" d="M211.48,69.88C211.48,69.88,211.48,69.88,211.48,69.88c-0.1-0.12-0.2-0.24-0.29-0.36c0,0,0,0,0,0
						C211.28,69.65,211.38,69.77,211.48,69.88z"/>
					<path class="st2" d="M208.74,65.5c-0.01-0.03-0.03-0.06-0.04-0.09C208.71,65.44,208.72,65.47,208.74,65.5
						C208.74,65.5,208.74,65.5,208.74,65.5z"/>
					<path class="st2" d="M212.27,70.74C212.27,70.74,212.27,70.74,212.27,70.74c-0.17-0.17-0.34-0.35-0.5-0.53c0,0,0,0,0,0
						C211.93,70.39,212.1,70.57,212.27,70.74z"/>
					<path class="st2" d="M207.48,60.93C207.49,60.93,207.49,60.93,207.48,60.93c-0.04-0.37-0.06-0.74-0.06-1.1
						c0,0.27,0.01,0.55,0.03,0.83C207.47,60.75,207.48,60.84,207.48,60.93z"/>
					<path class="st2" d="M208.36,64.58C208.36,64.58,208.36,64.58,208.36,64.58c-0.03-0.08-0.06-0.17-0.09-0.25c0,0,0,0,0,0
						C208.3,64.41,208.33,64.5,208.36,64.58z"/>
					<path class="st2" d="M207.65,62.08c-0.04-0.2-0.07-0.4-0.1-0.6C207.58,61.67,207.62,61.88,207.65,62.08
						C207.65,62.08,207.65,62.08,207.65,62.08z"/>
					<path class="st2" d="M212.84,71.3c-0.09-0.08-0.17-0.16-0.25-0.24v0C212.67,71.15,212.76,71.22,212.84,71.3z"/>
					<path class="st2" d="M207.5,58.76c-0.01,0.08-0.02,0.16-0.03,0.25C207.47,58.93,207.49,58.85,207.5,58.76z"/>
					<path class="st2" d="M208.07,63.73C208.07,63.73,208.07,63.73,208.07,63.73c-0.03-0.1-0.06-0.21-0.09-0.31v0
						C208,63.52,208.04,63.62,208.07,63.73z"/>
					<path class="st2" d="M216.5,73.58c-0.01-0.01-0.03-0.01-0.04-0.02c0.01,0,0.02,0.01,0.02,0.01
						C216.48,73.57,216.49,73.58,216.5,73.58z"/>
					<path class="st2" d="M219.27,73.8c-0.04,0.01-0.08,0.02-0.12,0.03c0.01,0,0.01,0,0.02,0C219.19,73.82,219.23,73.81,219.27,73.8
						z"/>
					<path class="st2" d="M218.59,73.9c-0.04,0-0.09,0-0.13,0c0.01,0,0.02,0,0.04,0C218.52,73.9,218.55,73.9,218.59,73.9z"/>
					<path class="st2" d="M217.37,73.8c-0.1-0.02-0.21-0.04-0.31-0.07c0,0,0.01,0,0.01,0C217.17,73.76,217.27,73.78,217.37,73.8z"/>
					<path class="st2" d="M217.99,73.89c-0.08-0.01-0.15-0.01-0.23-0.02c0,0,0.01,0,0.01,0C217.85,73.87,217.92,73.88,217.99,73.89z
						"/>
					<path class="st2" d="M219.82,73.64c-0.04,0.02-0.09,0.03-0.14,0.05c0.01,0,0.02-0.01,0.02-0.01
						C219.74,73.66,219.78,73.65,219.82,73.64z"/>
					<path class="st2" d="M222.23,69.41c-0.23-0.11-0.46-0.22-0.69-0.36c-0.24-0.14-0.48-0.29-0.72-0.46
						c-0.08-0.05-0.15-0.11-0.23-0.16c-0.16-0.12-0.32-0.23-0.48-0.36c-0.09-0.07-0.17-0.14-0.26-0.21
						c-0.14-0.12-0.29-0.24-0.43-0.37c-0.09-0.08-0.17-0.16-0.25-0.24c-0.11-0.1-0.22-0.21-0.32-0.32c-0.17-0.17-0.34-0.35-0.5-0.53
						c-0.1-0.11-0.19-0.22-0.29-0.33c-0.1-0.12-0.2-0.24-0.29-0.36c-0.12-0.14-0.23-0.29-0.34-0.44c-0.07-0.09-0.14-0.19-0.21-0.28
						c-0.13-0.18-0.25-0.36-0.38-0.54c-0.05-0.07-0.1-0.14-0.15-0.22c-0.16-0.25-0.32-0.51-0.48-0.77
						c-0.03-0.04-0.05-0.09-0.07-0.13c-0.13-0.22-0.25-0.45-0.37-0.68c-0.04-0.08-0.08-0.15-0.11-0.23
						c-0.12-0.24-0.24-0.49-0.35-0.73c-0.01-0.03-0.03-0.06-0.04-0.09c-0.12-0.28-0.23-0.55-0.33-0.83
						c-0.03-0.08-0.06-0.16-0.09-0.25c-0.07-0.2-0.14-0.4-0.2-0.61c-0.03-0.1-0.06-0.21-0.09-0.31c-0.05-0.18-0.1-0.36-0.14-0.54
						c-0.03-0.13-0.07-0.26-0.09-0.38c-0.03-0.14-0.05-0.28-0.08-0.41c-0.04-0.2-0.07-0.4-0.1-0.6c-0.03-0.18-0.05-0.36-0.07-0.54
						c-0.01-0.09-0.02-0.18-0.03-0.27c-0.02-0.28-0.03-0.56-0.03-0.84c0-0.34,0.02-0.66,0.06-0.97c0.31,0.13,0.62,0.28,0.94,0.47
						c4.17,2.41,7.54,8.25,7.53,13.04c0,0.34-0.02,0.66-0.06,0.96c-0.02-0.01-0.05-0.02-0.07-0.03
						C222.34,69.46,222.29,69.43,222.23,69.41z"/>
					<path class="st2" d="M213.53,71.89c0.16,0.13,0.32,0.24,0.48,0.36c0.08,0.05,0.15,0.11,0.23,0.16
						c0.24,0.16,0.48,0.32,0.72,0.46c-0.67-0.38-1.31-0.86-1.92-1.4c0.08,0.07,0.16,0.14,0.24,0.21
						C213.36,71.75,213.44,71.82,213.53,71.89z"/>
					<path class="st2" d="M215.82,73.31c-0.29-0.13-0.57-0.27-0.87-0.44c0.23,0.14,0.46,0.25,0.69,0.36
						C215.7,73.26,215.76,73.28,215.82,73.31z"/>
					<path class="st3" d="M194.7,60.66l4.02-2.33c0.04,0.26,0.08,0.53,0.12,0.79L194.7,60.66z"/>
					<path class="st3" d="M225.81,84.78l-0.35,2.12l-6.58,3.82l0.91-5.55C222.04,85.67,224.08,85.52,225.81,84.78z"/>
					<path class="st3" d="M207.5,58.76c0.02-0.17,0.04-0.34,0.07-0.5c0.02-0.09,0.04-0.18,0.06-0.27c0.03-0.14,0.07-0.29,0.11-0.42
						c0.03-0.09,0.06-0.17,0.09-0.26c0.05-0.13,0.09-0.25,0.15-0.37c0.03-0.08,0.07-0.16,0.11-0.23c0.06-0.12,0.12-0.23,0.19-0.34
						c0.04-0.06,0.08-0.13,0.12-0.19c0.08-0.12,0.17-0.23,0.26-0.34c0.03-0.04,0.07-0.09,0.1-0.13c0.13-0.14,0.27-0.27,0.41-0.39
						c0.07-0.06,0.15-0.1,0.22-0.16c1.19-0.83,2.83-0.92,4.68-0.12c-0.03,0.31-0.06,0.63-0.06,0.97c0,0.28,0.01,0.55,0.03,0.84
						c0.01,0.09,0.02,0.18,0.03,0.27c0.02,0.18,0.04,0.36,0.07,0.54c0.03,0.2,0.06,0.4,0.1,0.6c0.03,0.14,0.05,0.28,0.08,0.41
						c0.03,0.13,0.06,0.26,0.09,0.38c0.05,0.18,0.09,0.36,0.14,0.54c0.03,0.1,0.06,0.21,0.09,0.31c0.06,0.2,0.13,0.4,0.2,0.61
						c0.03,0.08,0.06,0.16,0.09,0.25c0.1,0.28,0.21,0.56,0.33,0.83c0.01,0.03,0.03,0.06,0.04,0.09c0.11,0.25,0.23,0.49,0.35,0.73
						c0.04,0.08,0.08,0.15,0.11,0.23c0.12,0.23,0.24,0.45,0.37,0.68c0.03,0.04,0.05,0.09,0.07,0.13c0.15,0.26,0.31,0.52,0.48,0.77
						c0.05,0.07,0.1,0.14,0.15,0.22c0.12,0.18,0.25,0.36,0.38,0.54c0.07,0.1,0.14,0.19,0.21,0.28c0.11,0.15,0.23,0.29,0.34,0.44
						c0.1,0.12,0.19,0.24,0.29,0.36c0.09,0.11,0.19,0.22,0.29,0.33c0.16,0.18,0.33,0.36,0.5,0.53c0.11,0.11,0.21,0.22,0.32,0.32
						c0.08,0.08,0.17,0.16,0.25,0.24c0.14,0.13,0.28,0.25,0.43,0.37c0.09,0.07,0.17,0.14,0.26,0.21c0.16,0.12,0.32,0.24,0.48,0.36
						c0.08,0.05,0.15,0.11,0.23,0.16c0.24,0.16,0.48,0.32,0.72,0.46c0.23,0.14,0.46,0.25,0.69,0.36c0.06,0.03,0.12,0.06,0.18,0.08
						c0.02,0.01,0.05,0.02,0.07,0.03c-0.2,1.88-0.99,3.22-2.17,3.9c0,0,0,0,0,0c-0.15,0.09-0.32,0.16-0.48,0.23
						c-0.04,0.01-0.07,0.03-0.11,0.04c-0.01,0-0.02,0.01-0.02,0.01c-0.13,0.05-0.27,0.09-0.41,0.12c-0.04,0.01-0.07,0.02-0.11,0.03
						c-0.01,0-0.01,0-0.02,0c-0.18,0.03-0.36,0.06-0.56,0.07c-0.03,0-0.07,0-0.1,0c-0.01,0-0.02,0-0.04,0c-0.15,0-0.3,0-0.46-0.01
						c-0.07-0.01-0.14-0.01-0.22-0.02c0,0-0.01,0-0.01,0c-0.13-0.01-0.26-0.04-0.39-0.06c-0.1-0.02-0.2-0.04-0.3-0.06
						c0,0-0.01,0-0.01,0c-0.19-0.05-0.37-0.09-0.56-0.16c-0.01,0-0.01,0-0.02-0.01c-0.01,0-0.02-0.01-0.02-0.01
						c-0.21-0.07-0.42-0.16-0.63-0.25c-0.06-0.03-0.12-0.05-0.18-0.08c-0.23-0.11-0.46-0.22-0.69-0.36
						c-0.24-0.14-0.48-0.29-0.72-0.46c-0.08-0.05-0.15-0.11-0.23-0.16c-0.16-0.12-0.32-0.23-0.48-0.36
						c-0.09-0.07-0.17-0.14-0.26-0.21c-0.08-0.07-0.16-0.14-0.24-0.21c-0.06-0.05-0.12-0.11-0.19-0.16
						c-0.09-0.08-0.17-0.16-0.25-0.24v0c-0.11-0.1-0.21-0.21-0.32-0.32c0,0,0,0,0,0c-0.17-0.17-0.34-0.35-0.5-0.53c0,0,0,0,0,0
						c-0.1-0.11-0.19-0.22-0.29-0.33c0,0,0,0,0,0c-0.1-0.12-0.2-0.24-0.29-0.36c0,0,0,0,0,0c-0.12-0.14-0.23-0.29-0.34-0.44
						c-0.07-0.09-0.14-0.19-0.21-0.28c-0.13-0.18-0.25-0.36-0.38-0.54c-0.05-0.07-0.1-0.14-0.15-0.22c0,0,0,0,0,0
						c-0.16-0.25-0.32-0.51-0.48-0.77c-0.03-0.04-0.05-0.09-0.08-0.14c0,0,0,0,0,0c-0.13-0.22-0.25-0.45-0.37-0.68c0,0,0,0,0,0
						c-0.04-0.08-0.08-0.15-0.11-0.23c0,0,0,0,0,0c-0.12-0.24-0.24-0.49-0.35-0.73c0,0,0,0,0,0c-0.01-0.03-0.03-0.06-0.04-0.09
						c-0.12-0.27-0.23-0.55-0.33-0.83c0,0,0,0,0,0c-0.03-0.08-0.06-0.17-0.09-0.25c0,0,0,0,0,0c-0.07-0.2-0.14-0.4-0.2-0.6
						c0,0,0,0,0,0c-0.03-0.1-0.06-0.21-0.09-0.31v0c-0.05-0.18-0.1-0.36-0.14-0.54c-0.03-0.13-0.07-0.26-0.09-0.38
						c-0.03-0.14-0.05-0.28-0.08-0.41c0,0,0,0,0,0c-0.04-0.2-0.07-0.4-0.1-0.6c-0.03-0.18-0.05-0.36-0.07-0.54c0,0,0,0,0,0
						c-0.01-0.09-0.02-0.18-0.03-0.27c-0.02-0.28-0.03-0.56-0.03-0.83c0-0.28,0.02-0.55,0.04-0.81
						C207.47,58.93,207.49,58.85,207.5,58.76z"/>
					<polygon class="st4" points="198.74,38.72 205.32,34.89 210.35,39.94 203.76,43.77 					"/>
					<path class="st3" d="M209.15,43.03c-0.18-0.02-0.36-0.04-0.53-0.06c-0.14-0.01-0.28-0.02-0.42-0.03h0
						c-0.1-0.01-0.2-0.01-0.31-0.01l0,0c-0.24-0.01-0.48,0-0.71,0.01c0,0,0,0,0,0c-0.1,0-0.2,0.01-0.29,0.01c0,0,0,0,0,0
						c-0.26,0.02-0.52,0.05-0.77,0.09c0,0,0,0,0,0c-0.05,0.01-0.09,0.01-0.14,0.02c0,0,0,0,0,0c-0.29,0.05-0.57,0.12-0.85,0.2
						c0,0,0,0,0,0c-0.05,0.01-0.1,0.03-0.14,0.05c-0.23,0.07-0.45,0.14-0.66,0.23c0,0,0,0,0,0c-0.19,0.07-0.37,0.15-0.55,0.24
						l6.58-3.82c0.13-0.06,0.25-0.12,0.38-0.17l-0.56,3.44C209.82,43.13,209.48,43.07,209.15,43.03z"/>
					<polygon class="st3" points="231.09,77.74 237.67,73.91 241.79,80.22 235.21,84.05 					"/>
					<polygon class="st4" points="241.79,80.22 237.79,85.84 231.21,89.66 235.21,84.05 					"/>
					<path class="st4" d="M231.41,75.83c0.07-0.67,0.11-1.36,0.11-2.09c0,0,0,0,0,0c0-0.47-0.02-0.94-0.05-1.42c0,0,0,0,0,0
						c-0.01-0.13-0.02-0.26-0.03-0.38c0,0,0,0,0,0c-0.07-0.88-0.17-1.77-0.33-2.67c0,0,0,0,0,0c0,0,0,0,0,0l4.14-1.55l-3.95-10.2
						l6.58-3.82l3.95,10.2l-4.02,2.33c0.02,0.14,0.05,0.28,0.06,0.42c0,0.02,0.01,0.04,0.01,0.06c0.01,0.06,0.01,0.11,0.02,0.17
						c0.05,0.41,0.09,0.83,0.12,1.24c0.01,0.13,0.02,0.26,0.03,0.39c0.03,0.48,0.05,0.95,0.05,1.42c0,1.46-0.16,2.79-0.43,4
						l-6.58,3.82C231.23,77.14,231.34,76.5,231.41,75.83z"/>
					<path class="st4" d="M225.68,55.82C225.68,55.82,225.68,55.82,225.68,55.82c-0.28-0.43-0.56-0.86-0.86-1.28c0,0,0,0,0,0
						c-0.04-0.06-0.08-0.11-0.12-0.17c0,0,0,0,0,0c-0.3-0.42-0.6-0.83-0.92-1.24c-0.07-0.09-0.14-0.18-0.2-0.26c0,0,0,0,0,0
						c-0.38-0.48-0.76-0.95-1.16-1.41l0,0c-0.12-0.14-0.24-0.27-0.36-0.4c0,0,0,0,0,0c-0.16-0.18-0.32-0.36-0.49-0.54c0,0,0,0,0,0
						c-0.13-0.14-0.26-0.27-0.39-0.41c0,0,0,0,0,0c-0.16-0.17-0.33-0.34-0.49-0.51l0,0c-0.26-0.26-0.52-0.51-0.79-0.76l6.58-3.82
						c0.23,0.22,0.46,0.44,0.69,0.66c0.03,0.03,0.07,0.07,0.1,0.1c0.17,0.17,0.33,0.34,0.5,0.51c0.13,0.14,0.26,0.27,0.39,0.41
						c0.17,0.18,0.33,0.36,0.49,0.54c0.1,0.12,0.21,0.23,0.31,0.35c0.01,0.02,0.03,0.04,0.04,0.05c0.4,0.46,0.78,0.93,1.16,1.41
						c0.04,0.05,0.08,0.1,0.12,0.15c0.05,0.06,0.09,0.12,0.14,0.18c0.29,0.38,0.58,0.77,0.86,1.17c0.03,0.04,0.06,0.08,0.09,0.13
						c0.01,0.01,0.02,0.02,0.02,0.04c0.29,0.42,0.58,0.85,0.86,1.28c0.02,0.04,0.05,0.07,0.07,0.11c0.18,0.28,0.35,0.56,0.52,0.84
						l-6.58,3.82C226.08,56.44,225.88,56.13,225.68,55.82z"/>
					<polygon class="st3" points="219.02,42.25 225.6,38.42 226.48,45 219.9,48.83 					"/>
					<polygon class="st4" points="211.07,37.66 217.66,33.84 225.6,38.42 219.02,42.25 					"/>
					<polygon class="st3" points="226.27,56.76 232.85,52.94 237.89,53.69 231.3,57.52 					"/>
					<path class="st5" d="M194.7,60.66l3.95,10.2l5.03,0.76c1.79,2.97,3.96,5.69,6.37,7.93l0.88,6.58l7.94,4.59l0.91-5.55
						c2.25,0.5,4.29,0.35,6.02-0.39c0.13-0.05,0.26-0.1,0.38-0.17l5.02,5.05l3.99-5.61l-4.11-6.31c0.14-0.6,0.24-1.24,0.32-1.9
						c0.07-0.67,0.11-1.36,0.11-2.09c0,0,0,0,0,0c0-0.47-0.02-0.94-0.05-1.42c-0.01-0.13-0.02-0.26-0.03-0.38
						c-0.07-0.88-0.17-1.77-0.33-2.67c0,0,0,0,0-0.01l4.14-1.55l-3.95-10.2l-5.03-0.76c-0.19-0.32-0.39-0.63-0.59-0.94
						c-0.28-0.43-0.56-0.86-0.86-1.28c-0.04-0.06-0.08-0.11-0.12-0.17c-0.3-0.42-0.6-0.83-0.92-1.24c-0.07-0.09-0.14-0.18-0.2-0.26
						c-0.38-0.48-0.76-0.95-1.16-1.41c-0.12-0.14-0.24-0.27-0.36-0.41c-0.16-0.18-0.32-0.36-0.49-0.54
						c-0.13-0.14-0.26-0.28-0.4-0.41c-0.16-0.17-0.33-0.34-0.49-0.51c-0.26-0.26-0.52-0.51-0.79-0.76l-0.88-6.58l-7.94-4.59
						l-0.35,2.11l-0.56,3.44c-0.34-0.08-0.68-0.13-1.01-0.18c-0.18-0.02-0.36-0.04-0.53-0.06c-0.14-0.01-0.28-0.02-0.42-0.03
						c-0.1-0.01-0.2-0.01-0.31-0.01c-0.24-0.01-0.48,0-0.71,0.01c-0.1,0-0.2,0.01-0.3,0.01c-0.26,0.02-0.52,0.05-0.77,0.09
						c-0.05,0.01-0.1,0.01-0.14,0.02c-0.29,0.05-0.57,0.12-0.85,0.2c-0.05,0.01-0.1,0.03-0.14,0.05c-0.23,0.07-0.45,0.14-0.66,0.23
						c-0.19,0.07-0.37,0.15-0.55,0.24l-5.02-5.05l-3.99,5.61l4.12,6.31c-0.28,1.2-0.43,2.54-0.43,3.99c0,1.2,0.1,2.44,0.29,3.69
						c0.04,0.26,0.08,0.53,0.12,0.79L194.7,60.66z M207.43,59.83c0-0.28,0.02-0.55,0.04-0.81c0.01-0.09,0.02-0.17,0.03-0.25
						c0.02-0.17,0.04-0.34,0.07-0.5c0.02-0.09,0.04-0.18,0.06-0.27c0.03-0.14,0.07-0.29,0.11-0.42c0.03-0.09,0.06-0.17,0.09-0.26
						c0.05-0.13,0.09-0.25,0.15-0.37c0.03-0.08,0.07-0.16,0.11-0.23c0.06-0.12,0.12-0.23,0.19-0.34c0.04-0.06,0.08-0.13,0.12-0.19
						c0.08-0.12,0.17-0.23,0.26-0.34c0.03-0.04,0.07-0.09,0.1-0.13c0.13-0.14,0.27-0.27,0.41-0.39c0.07-0.06,0.15-0.1,0.22-0.16
						c1.19-0.83,2.83-0.92,4.68-0.12c0.31,0.13,0.62,0.28,0.94,0.47c4.17,2.41,7.54,8.25,7.53,13.04c0,0.34-0.02,0.66-0.06,0.96
						c-0.2,1.88-0.99,3.22-2.17,3.9c0,0,0,0,0,0c-0.15,0.09-0.32,0.16-0.48,0.23c-0.04,0.02-0.09,0.03-0.14,0.05
						c-0.13,0.05-0.27,0.09-0.41,0.12c-0.04,0.01-0.08,0.02-0.12,0.03c-0.18,0.03-0.36,0.06-0.56,0.07c-0.04,0-0.09,0-0.13,0
						c-0.15,0-0.3,0-0.46-0.01c-0.08-0.01-0.15-0.01-0.23-0.02c-0.13-0.01-0.26-0.04-0.39-0.06c-0.1-0.02-0.21-0.04-0.31-0.07
						c-0.19-0.05-0.37-0.09-0.56-0.16c-0.01-0.01-0.03-0.01-0.04-0.02c-0.21-0.07-0.42-0.16-0.63-0.25
						c-0.29-0.13-0.57-0.27-0.87-0.44c-0.67-0.38-1.31-0.86-1.92-1.4c-0.06-0.05-0.12-0.11-0.19-0.16
						c-0.09-0.08-0.17-0.16-0.25-0.24c-0.11-0.1-0.21-0.21-0.32-0.32c-0.17-0.17-0.34-0.35-0.5-0.53c-0.1-0.11-0.19-0.22-0.29-0.33
						c-0.1-0.12-0.2-0.24-0.29-0.36c-0.12-0.14-0.23-0.29-0.34-0.44c-0.07-0.09-0.14-0.19-0.21-0.28c-0.13-0.18-0.25-0.36-0.38-0.54
						c-0.05-0.07-0.1-0.14-0.15-0.22c-0.16-0.25-0.32-0.51-0.48-0.77c-0.03-0.04-0.05-0.09-0.08-0.14
						c-0.13-0.22-0.25-0.45-0.37-0.68c-0.04-0.08-0.08-0.15-0.12-0.23c-0.12-0.24-0.24-0.49-0.35-0.73
						c-0.01-0.03-0.03-0.06-0.04-0.09c-0.12-0.27-0.23-0.55-0.33-0.83c-0.03-0.08-0.06-0.17-0.09-0.25c-0.07-0.2-0.14-0.4-0.2-0.6
						c-0.03-0.1-0.06-0.21-0.1-0.31c-0.05-0.18-0.1-0.36-0.14-0.54c-0.03-0.13-0.07-0.26-0.09-0.38c-0.03-0.14-0.05-0.28-0.08-0.41
						c-0.04-0.2-0.07-0.4-0.1-0.6c-0.03-0.18-0.05-0.36-0.07-0.54C207.45,60.56,207.42,60.19,207.43,59.83z"/>
				</g>
			</g>
			<g>
				<path class="st6" d="M37.29,296.49l119.96-69.71c1.63-0.94,3.63-0.95,5.26-0.01l90.45,52.22c1.4,0.81,1.4,2.82,0.01,3.63
					L133,352.33c-1.63,0.94-3.63,0.95-5.26,0.01L37.3,300.12C35.9,299.31,35.9,297.3,37.29,296.49z"/>
				<g>
					<g>
						<polygon class="st0" points="249.81,262.83 159.88,210.91 40.44,280.32 130.37,332.25 						"/>
						<polygon class="st7" points="130.37,332.25 130.33,347.77 249.77,278.35 249.81,262.83 						"/>
						<polygon class="st8" points="130.37,332.25 130.33,347.77 249.77,278.35 249.81,262.83 						"/>
						<polygon class="st9" points="40.44,280.32 40.4,295.85 130.33,347.77 130.37,332.25 						"/>
					</g>
					<g>
						<g class="st10">
							<g>
								<polygon class="st11" points="182.54,254.56 179.66,256.24 136.47,231.3 139.36,229.63 								"/>
							</g>
							<g>
								<polygon class="st11" points="132.79,255.82 129.91,257.49 110.6,246.34 113.48,244.67 								"/>
							</g>
							<g>
								<polygon class="st11" points="228.54,267.8 225.67,269.47 147.98,224.61 150.86,222.94 								"/>
							</g>
							<g>
								<polygon class="st11" points="222.79,271.14 219.91,272.81 142.23,227.96 145.1,226.29 								"/>
							</g>
							<g>
								<polygon class="st11" points="208.42,279.49 205.53,281.17 127.85,236.31 130.73,234.64 								"/>
							</g>
							<g>
								<polygon class="st11" points="105.21,282.46 102.33,284.13 73.86,267.69 76.74,266.02 								"/>
							</g>
							<g>
								<polygon class="st11" points="202.66,282.84 199.79,284.51 122.1,239.65 124.98,237.98 								"/>
							</g>
							<g>
								<polygon class="st11" points="196.91,286.18 194.04,287.85 116.35,243 119.22,241.33 								"/>
							</g>
							<g>
								<polygon class="st11" points="157.88,287.88 155.01,289.55 95.43,255.15 98.3,253.48 								"/>
							</g>
							<g>
								<polygon class="st11" points="181.74,294.99 178.87,296.66 101.18,251.81 104.06,250.14 								"/>
							</g>
							<g>
								<polygon class="st11" points="105.08,300.7 102.2,302.37 58.05,276.88 60.92,275.21 								"/>
							</g>
							<g>
								<polygon class="st11" points="165.93,304.18 163.05,305.86 85.36,261 88.24,259.33 								"/>
							</g>
							<g>
								<polygon class="st11" points="160.18,307.53 157.3,309.2 79.62,264.34 82.49,262.67 								"/>
							</g>
							<g>
								<polygon class="st11" points="144.36,316.72 141.48,318.39 63.8,273.54 66.68,271.86 								"/>
							</g>
						</g>
						<g>
							<polygon class="st11" points="185.08,236.04 182.2,237.71 153.73,221.28 156.61,219.6 							"/>
						</g>
					</g>
				</g>
			</g>
			<g>
				<g>
					<path class="st12" d="M269.07,131.61L129.02,50.9c-1.49-0.86-2.83-0.88-3.75-0.23l-4.9,2.86l0,0.02
						c0.89-0.39,2.04-0.28,3.31,0.45l140.05,80.71c2.77,1.6,5.02,5.49,5.01,8.67l-0.04,14.96l-0.26,92.39
						c0,1.53-0.54,2.61-1.39,3.15l0.01,0.01l5.04-2.95c0.15-0.07,0.29-0.15,0.42-0.24l0,0c0.78-0.57,1.25-1.62,1.26-3.08l0.26-92.39
						l0.04-14.96C274.09,137.09,271.84,133.21,269.07,131.61z"/>
					<polygon class="st7" points="118.59,71.84 118.59,71.85 118.59,71.85 118.59,71.85 					"/>
					<path class="st11" d="M268.43,250.74l0.26-92.39l0.04-14.96c0.01-3.19-2.23-7.07-5.01-8.67L123.68,54.01
						c-1.27-0.74-2.42-0.84-3.31-0.45c-1.05,0.46-1.72,1.6-1.73,3.32l-0.04,14.96v0v0l-0.26,92.39c-0.01,3.19,2.23,7.07,5.01,8.67
						l140.05,80.71c1.44,0.83,2.73,0.87,3.65,0.29C267.9,253.35,268.43,252.27,268.43,250.74z"/>
				</g>
				<g>
					<g>
						<path class="st9" d="M254.83,158.09l-0.21,75.7c0,1.26-0.44,2.14-1.14,2.58l0.01,0l3.5-2.03c0.12-0.06,0.24-0.12,0.34-0.2h0
							c0.64-0.46,1.03-1.33,1.03-2.52l0.21-75.7L254.83,158.09L254.83,158.09z"/>
						<path class="st13" d="M254.5,136.55L128.28,63.68c-1.22-0.71-2.32-0.72-3.08-0.19l-3.38,1.96l0,0.02
							c0.73-0.32,1.67-0.23,2.71,0.37l126.22,72.88c2.27,1.31,4.11,4.5,4.1,7.11l-0.03,12.26l3.74-2.17l0.03-12.26
							C258.62,141.05,256.78,137.86,254.5,136.55z"/>
						<path class="st0" d="M254.62,233.79l0.21-75.7L120.37,80.46l-0.21,75.7c-0.01,2.61,1.83,5.79,4.1,7.1l126.22,72.88
							c1.18,0.68,2.24,0.71,2.99,0.23C254.18,235.93,254.61,235.05,254.62,233.79z"/>
						<path class="st14" d="M254.83,158.09L254.83,158.09l0.03-12.26c0.01-2.61-1.83-5.8-4.1-7.11L124.54,65.84
							c-1.04-0.6-1.99-0.69-2.71-0.37c-0.86,0.37-1.41,1.31-1.42,2.72l-0.03,12.26L254.83,158.09z"/>
					</g>
					<g>
						<g>
							<path class="st11" d="M222.86,183.82c1.59,0.92,2.87,3.14,2.87,4.97l-0.01,5.23c-0.01,1.83-1.3,2.57-2.89,1.65l-10.89-6.29
								c-1.59-0.92-2.87-3.14-2.87-4.97l0.01-5.23c0.01-1.83,1.3-2.57,2.89-1.65L222.86,183.82z"/>
						</g>
						<g>
							<path class="st11" d="M222.82,199.67c1.59,0.92,2.87,3.14,2.87,4.97l-0.01,5.23c-0.01,1.83-1.3,2.57-2.89,1.65l-10.89-6.29
								c-1.59-0.92-2.87-3.14-2.87-4.97l0.01-5.23c0.01-1.83,1.3-2.57,2.89-1.65L222.82,199.67z"/>
						</g>
						<g>
							<path class="st11" d="M202.97,156.46c1.59,0.92,2.87,3.15,2.87,4.97l-0.01,5.23c-0.01,1.83-1.3,2.57-2.89,1.65l-10.88-6.28
								c-1.59-0.92-2.88-3.15-2.87-4.98l0.01-5.23c0.01-1.83,1.3-2.57,2.89-1.65L202.97,156.46z"/>
						</g>
						<g>
							<path class="st15" d="M203.01,140.61c1.59,0.92,2.87,3.15,2.87,4.97l-0.01,5.23c-0.01,1.83-1.3,2.57-2.89,1.65l-10.88-6.28
								c-1.59-0.92-2.88-3.15-2.87-4.98l0.01-5.23c0.01-1.83,1.3-2.57,2.89-1.65L203.01,140.61z"/>
						</g>
						<g>
							<path class="st11" d="M182.98,160.8c1.59,0.92,2.88,3.15,2.87,4.98l-0.01,5.23c-0.01,1.83-1.3,2.57-2.89,1.65l-10.88-6.28
								c-1.59-0.92-2.88-3.15-2.87-4.98l0.01-5.23c0.01-1.83,1.3-2.57,2.89-1.65L182.98,160.8z"/>
						</g>
						<g class="st10">
							<g>
								<path class="st11" d="M183.03,144.95c1.59,0.92,2.88,3.15,2.87,4.98l-0.01,5.23c-0.01,1.83-1.3,2.57-2.89,1.65l-10.88-6.28
									c-1.59-0.92-2.88-3.15-2.87-4.98l0.01-5.23c0.01-1.83,1.3-2.57,2.89-1.65L183.03,144.95z"/>
							</g>
							<g>
								<path class="st15" d="M183.07,129.09c1.59,0.92,2.88,3.15,2.87,4.98l-0.01,5.23c-0.01,1.83-1.3,2.57-2.89,1.65l-10.88-6.28
									c-1.59-0.92-2.88-3.15-2.87-4.98l0.01-5.23c0.01-1.83,1.3-2.57,2.89-1.65L183.07,129.09z"/>
							</g>
						</g>
						<g>
							<path class="st14" d="M202.92,172.31c1.59,0.92,2.87,3.14,2.87,4.97l-0.01,5.23c-0.01,1.83-1.3,2.57-2.89,1.65L192,177.88
								c-1.59-0.92-2.88-3.15-2.87-4.98l0.01-5.23c0.01-1.83,1.3-2.57,2.89-1.65L202.92,172.31z"/>
						</g>
						<g>
							<path class="st15" d="M242.89,163.63c1.59,0.92,2.87,3.15,2.87,4.97l-0.01,5.23c-0.01,1.83-1.3,2.57-2.89,1.65l-10.89-6.29
								c-1.59-0.92-2.87-3.14-2.87-4.97l0.01-5.23c0.01-1.83,1.3-2.57,2.89-1.65L242.89,163.63z"/>
						</g>
						<g>
							<path class="st11" d="M242.85,179.48c1.59,0.92,2.87,3.15,2.87,4.97l-0.01,5.23c-0.01,1.83-1.3,2.57-2.89,1.65l-10.89-6.29
								c-1.59-0.92-2.87-3.14-2.87-4.97l0.01-5.23c0.01-1.83,1.3-2.57,2.89-1.65L242.85,179.48z"/>
						</g>
						<g>
							<path class="st14" d="M242.76,211.19c1.59,0.92,2.87,3.14,2.87,4.97l-0.01,5.23c-0.01,1.83-1.3,2.57-2.89,1.65l-10.89-6.29
								c-1.59-0.92-2.87-3.14-2.87-4.97l0.01-5.23c0.01-1.83,1.3-2.57,2.89-1.65L242.76,211.19z"/>
						</g>
						<g>
							<path class="st11" d="M242.8,195.33c1.59,0.92,2.87,3.14,2.87,4.97l-0.01,5.23c-0.01,1.83-1.3,2.57-2.89,1.65l-10.89-6.29
								c-1.59-0.92-2.87-3.14-2.87-4.97l0.01-5.23c0.01-1.83,1.3-2.57,2.89-1.65L242.8,195.33z"/>
						</g>
						<g>
							<path class="st11" d="M222.91,167.97c1.59,0.92,2.87,3.15,2.87,4.97l-0.01,5.23c-0.01,1.83-1.3,2.57-2.89,1.65l-10.89-6.29
								c-1.59-0.92-2.87-3.14-2.87-4.97l0.01-5.23c0.01-1.83,1.3-2.57,2.89-1.65L222.91,167.97z"/>
						</g>
						<g>
							<path class="st15" d="M222.95,152.12c1.59,0.92,2.87,3.15,2.87,4.97l-0.01,5.23c-0.01,1.83-1.3,2.57-2.89,1.65l-10.89-6.29
								c-1.59-0.92-2.87-3.14-2.87-4.97l0.01-5.23c0.01-1.83,1.3-2.57,2.89-1.65L222.95,152.12z"/>
						</g>
						<g>
							<path class="st11" d="M202.88,188.16c1.59,0.92,2.87,3.14,2.87,4.97l-0.01,5.23c-0.01,1.83-1.3,2.57-2.89,1.65l-10.88-6.28
								c-1.59-0.92-2.88-3.15-2.87-4.98l0.01-5.23c0.01-1.83,1.3-2.57,2.89-1.65L202.88,188.16z"/>
						</g>
						<g>
							<path class="st11" d="M163,165.14c1.59,0.92,2.88,3.15,2.87,4.98l-0.01,5.23c-0.01,1.83-1.3,2.57-2.89,1.65l-10.88-6.28
								c-1.59-0.92-2.88-3.15-2.87-4.98l0.01-5.23c0.01-1.83,1.3-2.57,2.89-1.65L163,165.14z"/>
						</g>
						<g>
							<path class="st16" d="M143.19,106.07c1.59,0.92,2.88,3.15,2.87,4.98l-0.01,5.23c-0.01,1.83-1.3,2.57-2.89,1.65l-10.88-6.28
								c-1.59-0.92-2.88-3.15-2.87-4.98l0.01-5.23c0.01-1.83,1.3-2.57,2.89-1.65L143.19,106.07z"/>
						</g>
						<g>
							<path class="st17" d="M143.15,121.92c1.59,0.92,2.88,3.15,2.87,4.98l-0.01,5.23c-0.01,1.83-1.3,2.57-2.89,1.65l-10.88-6.28
								c-1.59-0.92-2.88-3.15-2.87-4.98l0.01-5.23c0.01-1.83,1.3-2.57,2.89-1.65L143.15,121.92z"/>
						</g>
						<g>
							<path class="st17" d="M143.1,137.77c1.59,0.92,2.88,3.15,2.87,4.98l-0.01,5.23c-0.01,1.83-1.3,2.57-2.89,1.65l-10.88-6.28
								c-1.59-0.92-2.88-3.15-2.87-4.98l0.01-5.23c0.01-1.83,1.3-2.57,2.89-1.65L143.1,137.77z"/>
						</g>
						<g>
							<path class="st17" d="M143.06,153.62c1.59,0.92,2.88,3.15,2.87,4.98l-0.01,5.23c-0.01,1.83-1.3,2.57-2.89,1.65l-10.88-6.28
								c-1.59-0.92-2.88-3.15-2.87-4.98l0.01-5.23c0.01-1.83,1.3-2.57,2.89-1.65L143.06,153.62z"/>
						</g>
						<g>
							<path class="st15" d="M163.13,117.58c1.59,0.92,2.88,3.15,2.87,4.98l-0.01,5.23c-0.01,1.83-1.3,2.57-2.89,1.65l-10.88-6.28
								c-1.59-0.92-2.88-3.15-2.87-4.98l0.01-5.23c0.01-1.83,1.3-2.57,2.89-1.65L163.13,117.58z"/>
						</g>
						<g>
							<path class="st11" d="M163.09,133.43c1.59,0.92,2.88,3.15,2.87,4.98l-0.01,5.23c-0.01,1.83-1.3,2.57-2.89,1.65l-10.88-6.28
								c-1.59-0.92-2.88-3.15-2.87-4.98l0.01-5.23c0.01-1.83,1.3-2.57,2.89-1.65L163.09,133.43z"/>
						</g>
						<g>
							<path class="st11" d="M163.04,149.28c1.59,0.92,2.88,3.15,2.87,4.98l-0.01,5.23c-0.01,1.83-1.3,2.57-2.89,1.65l-10.88-6.28
								c-1.59-0.92-2.88-3.15-2.87-4.98l0.01-5.23c0.01-1.83,1.3-2.57,2.89-1.65L163.04,149.28z"/>
						</g>
						<g>
							<path class="st11" d="M182.94,176.65c1.59,0.92,2.88,3.15,2.87,4.98l-0.01,5.23c-0.01,1.83-1.3,2.57-2.89,1.65l-10.88-6.28
								c-1.59-0.92-2.88-3.15-2.87-4.98l0.01-5.23c0.01-1.83,1.3-2.57,2.89-1.65L182.94,176.65z"/>
						</g>
					</g>
					<g>
						<g>
							<path class="st18" d="M171.16,135.62c0.1,0.06,0.21,0.15,0.31,0.29c2.9,3.7,5.69,7.52,8.37,11.44
								c2.03-0.41,4.06-0.82,6.09-1.22c0.11-0.02,0.22,0,0.32,0.06c0.51,0.29,0.84,1.42,0.3,1.52c-1.9,0.38-3.8,0.76-5.69,1.14
								c2.39,3.56,4.69,7.2,6.89,10.93c0.44,0.75,0.02,1.22-0.46,0.94c-0.14-0.08-0.28-0.22-0.41-0.44
								c-2.26-3.82-4.63-7.56-7.09-11.21c-3.83,0.77-7.66,1.53-11.48,2.3c-0.11,0.02-0.22,0-0.32-0.06
								c-0.51-0.29-0.84-1.41-0.3-1.52c3.7-0.74,7.39-1.48,11.08-2.23c-2.53-3.69-5.17-7.29-7.91-10.79
								C170.28,136.04,170.63,135.31,171.16,135.62z"/>
						</g>
						<g>
							<path class="st18" d="M227.81,185.7c0.09,0.05,0.19,0.13,0.29,0.25c3.12,3.61,6.24,7.21,9.36,10.82
								c2.69-0.13,5.38-0.26,8.07-0.39c0.1,0,0.2,0.03,0.3,0.08c0.55,0.32,0.91,1.47,0.32,1.51c-2.45,0.12-4.9,0.24-7.35,0.36
								c3.19,3.68,6.37,7.37,9.56,11.04c0.61,0.71,0.23,1.44-0.34,1.12c-0.09-0.05-0.19-0.13-0.29-0.25
								c-3.42-3.95-6.83-7.9-10.25-11.85c-3.07,0.15-6.14,0.3-9.21,0.45c-0.1,0.01-0.2-0.03-0.3-0.08c-0.55-0.32-0.91-1.47-0.32-1.5
								c2.83-0.14,5.66-0.28,8.49-0.42c-2.89-3.34-5.78-6.68-8.66-10.01C226.86,186.11,227.24,185.37,227.81,185.7z"/>
						</g>
						<g>
							<path class="st18" d="M188.95,179.23c0.09,0.05,0.18,0.13,0.27,0.23c3.58,3.92,7.02,8.05,10.32,12.36
								c2.36-0.37,4.72-0.73,7.08-1.09c0.11-0.02,0.22,0.01,0.32,0.07c0.52,0.3,0.86,1.43,0.3,1.51c-2.18,0.34-4.36,0.68-6.55,1.01
								c2.27,3.02,4.48,6.11,6.61,9.3c0.49,0.74,0.04,1.2-0.48,0.9c-0.13-0.08-0.27-0.21-0.4-0.4c-2.21-3.3-4.51-6.5-6.88-9.62
								c-3.15,0.48-6.3,0.97-9.46,1.46c-0.11,0.02-0.22-0.01-0.32-0.07c-0.52-0.3-0.86-1.43-0.3-1.52c2.97-0.46,5.94-0.92,8.92-1.38
								c-3.15-4.06-6.42-7.95-9.8-11.67C187.97,179.64,188.36,178.89,188.95,179.23z"/>
						</g>
					</g>
				</g>
				<polygon class="st2" points="133.51,78.49 133.51,78.49 133.51,78.5 				"/>
				<path class="st2" d="M137.76,78.54C137.76,78.54,137.76,78.54,137.76,78.54C137.76,78.54,137.76,78.54,137.76,78.54
					c0,0.01,0,0.02,0,0.03L137.76,78.54C137.76,78.54,137.76,78.54,137.76,78.54z"/>
				<path class="st2" d="M143.97,83.2C143.97,83.2,143.97,83.2,143.97,83.2c0.2-0.09,0.41-0.2,0.61-0.31
					c1.01-0.58,1.98-1.28,2.88-2.11c0,0,0,0,0.01-0.01c0.11-0.11,0.23-0.22,0.34-0.33c0.09-0.09,0.18-0.17,0.27-0.26
					c0.04-0.04,0.08-0.08,0.11-0.12c0.14-0.14,0.27-0.29,0.41-0.44c0.09-0.1,0.19-0.2,0.28-0.31c0.08-0.09,0.16-0.19,0.24-0.29
					c0.48-0.57,0.93-1.17,1.36-1.8c0.02-0.03,0.04-0.06,0.06-0.09c0.12-0.18,0.24-0.36,0.35-0.55l0.21-0.34
					c0.07-0.11,0.13-0.22,0.19-0.33l0.38-0.67c0.01-0.03,0.03-0.05,0.04-0.08l0.42-0.83c0.06-0.14,0.14-0.31,0.25-0.55l0.2-0.46
					l0.19-0.49c0.09-0.23,0.17-0.46,0.25-0.68c0.56-1.65,0.88-3.21,0.96-4.61c0-0.05,0.01-0.1,0.01-0.15
					c0.01-0.18,0.01-0.35,0.01-0.52c0-0.09,0-0.18,0-0.26c0-0.18-0.01-0.36-0.03-0.53c0-0.04-0.01-0.07-0.01-0.11
					c-0.16-1.77-0.79-3.14-1.89-3.83c-0.57-0.3-1.2-0.42-1.89-0.39c-0.04,0-0.08,0-0.12,0.01c-0.11,0.01-0.23,0.02-0.34,0.04
					c-0.01,0-0.02,0-0.03,0.01c-0.11,0.02-0.21,0.04-0.32,0.06c-0.08,0.02-0.15,0.03-0.23,0.05c-0.61,0.16-1.26,0.42-1.96,0.79
					c-0.08,0.05-0.17,0.09-0.25,0.14c-0.1,0.06-0.21,0.12-0.31,0.19c-0.13,0.08-0.26,0.16-0.38,0.25c-0.05,0.03-0.1,0.07-0.15,0.1
					c-1.33,0.93-2.66,2.2-3.85,3.7c-0.06,0.08-0.12,0.16-0.18,0.23c-0.23,0.3-0.45,0.6-0.67,0.91l-0.27,0.4
					c-0.01,0.01-0.02,0.03-0.03,0.04l-0.52,0.84l-0.41,0.73c-0.07,0.14-0.15,0.28-0.22,0.42l-0.01,0.03
					c-0.38,0.75-0.7,1.49-0.98,2.2c-0.1,0.27-0.2,0.55-0.3,0.82c-0.49,1.52-0.82,3.14-0.89,4.82c0,0.43,0.06,0.85,0.07,1.28
					c0.06,0.55,0.18,1.18,0.4,1.77c0.02,0.05,0.04,0.11,0.06,0.16c0.02,0.06,0.05,0.12,0.08,0.17c0.03,0.05,0.05,0.11,0.08,0.16
					c0.28,0.54,0.68,1.04,1.24,1.38c0.14,0.08,0.3,0.14,0.45,0.19c0.02,0.01,0.05,0.02,0.07,0.03c0.51,0.16,1.07,0.21,1.66,0.14
					c0.06-0.01,0.12-0.02,0.18-0.03c0.02,0,0.03-0.01,0.05-0.01c0,0,0,0,0,0c0.12-0.02,0.24-0.04,0.36-0.07
					c0.04-0.01,0.08-0.02,0.12-0.03c0.02-0.01,0.04-0.01,0.06-0.02c0.16-0.14,0.37-0.21,0.61-0.19
					C143.5,83.4,143.73,83.31,143.97,83.2z"/>
				<path class="st2" d="M138.76,73.41c0.01-0.03,0.02-0.06,0.03-0.1c-0.01,0.02-0.02,0.05-0.03,0.07
					C138.76,73.39,138.76,73.4,138.76,73.41z"/>
				<path class="st0" d="M149.13,57.57c0.01,0,0.02,0,0.03,0C149.15,57.57,149.14,57.57,149.13,57.57
					C149.13,57.57,149.13,57.57,149.13,57.57z"/>
				<path class="st19" d="M133.51,78.45c0-0.05,0-0.1,0-0.15"/>
				<path class="st2" d="M138.76,73.41c0.01-0.03,0.02-0.06,0.03-0.1c-0.01,0.02-0.02,0.05-0.03,0.07
					C138.76,73.39,138.76,73.4,138.76,73.41z"/>
				<polygon class="st2" points="133.51,78.49 133.51,78.49 133.51,78.5 				"/>
				<path class="st2" d="M137.76,78.54C137.76,78.54,137.76,78.54,137.76,78.54C137.76,78.54,137.76,78.54,137.76,78.54
					c0,0.01,0,0.02,0,0.03L137.76,78.54C137.76,78.54,137.76,78.54,137.76,78.54z"/>
				<g>
					<path class="st13" d="M143.93,82.4c-0.4-0.23-0.77-0.35-1.11-0.37c-0.41-0.03-0.76,0.09-1.04,0.33
						c-0.38,0.32-0.62,0.87-0.63,1.62c-0.01,1.76,1.23,3.9,2.76,4.78c0.32,0.19,0.62,0.28,0.91,0.33c0.57,0.1,1.07-0.05,1.4-0.43
						c0.29-0.34,0.46-0.84,0.47-1.49C146.69,85.42,145.45,83.28,143.93,82.4z"/>
					<path class="st4" d="M158.22,65.5c-0.03-0.38-0.09-0.79-0.18-1.21c0,0,0,0,0,0c-0.01-0.05-0.02-0.1-0.03-0.14l0-0.02
						c0,0,0-0.01,0-0.01c0-0.01,0-0.02-0.01-0.03c-0.02-0.09-0.04-0.18-0.06-0.26c-0.01-0.04-0.02-0.08-0.03-0.11
						c0-0.01,0-0.02,0-0.02c0,0,0-0.01,0-0.01c-0.01-0.03-0.02-0.06-0.02-0.09c-0.02-0.06-0.03-0.12-0.05-0.18
						c0-0.01-0.01-0.02-0.01-0.03c0-0.01,0-0.01,0-0.02c0-0.01,0-0.01-0.01-0.02c-0.03-0.11-0.06-0.21-0.09-0.31
						c-0.01-0.02-0.01-0.03-0.02-0.05c0,0,0-0.01,0-0.01c0-0.01-0.01-0.02-0.01-0.03c-0.03-0.08-0.05-0.16-0.08-0.24
						c-0.74-2.13-2.07-3.63-3.76-4.45c-0.05-0.03-0.11-0.05-0.17-0.08c-0.03-0.02-0.07-0.03-0.1-0.05
						c-0.02-0.01-0.04-0.02-0.05-0.02c-0.02-0.01-0.03-0.01-0.05-0.02c0,0-0.01,0-0.01,0l-0.01,0c-0.04-0.02-0.07-0.03-0.11-0.05
						c0,0,0,0,0,0c-0.26-0.11-0.5-0.19-0.71-0.25c-0.02-0.01-0.04-0.01-0.07-0.02c-0.05-0.01-0.09-0.03-0.15-0.04l-0.04-0.01
						l-0.17-0.04c-0.01,0-0.03-0.01-0.04-0.01c-0.04-0.01-0.07-0.02-0.11-0.03l-0.04-0.01c-0.03-0.01-0.06-0.01-0.09-0.02
						c-0.01,0-0.02,0-0.02-0.01l-0.04-0.01l0.06,0.01c-0.14-0.03-0.29-0.05-0.44-0.07c-0.07-0.01-0.14-0.01-0.21-0.02
						c-0.04,0-0.07-0.01-0.11-0.01c-0.08-0.01-0.17-0.01-0.24-0.02l-0.05,0l-0.18-0.01c-0.02,0-0.04,0-0.05,0c0,0-0.01,0-0.01,0
						l-0.04,0l0.05,0c-0.01,0-0.02,0-0.03,0c-0.05,0-0.1,0-0.15,0c0,0-0.01,0-0.01,0l-0.12,0c-0.16,0-0.33,0.01-0.52,0.02
						c-0.14,0.01-0.3,0.03-0.45,0.05c-0.05,0.01-0.09,0.01-0.13,0.02c-0.03,0-0.05,0.01-0.08,0.01c0,0,0,0,0,0l-0.04,0
						c-0.03,0.01-0.07,0.01-0.1,0.02c-0.18,0.03-0.35,0.06-0.52,0.1c-0.01,0-0.03,0.01-0.04,0.01l-0.02,0.01c0,0,0,0,0,0
						c-0.01,0-0.01,0-0.02,0c-0.07,0.01-0.46,0.09-1.05,0.29c-0.03,0.01-0.07,0.02-0.1,0.03c-0.04,0.01-0.08,0.03-0.12,0.04
						c-0.01,0-0.02,0.01-0.03,0.01c-0.53,0.14-1.12,0.4-1.76,0.75c-2.55,1.3-5.13,3.57-7.39,6.85c-0.03,0.05-0.06,0.09-0.09,0.13
						c-0.05,0.07-0.1,0.14-0.14,0.21c-0.07,0.11-0.15,0.22-0.22,0.34c-0.11,0.17-0.2,0.32-0.29,0.45c-0.01,0.01-0.01,0.02-0.02,0.03
						c-0.14,0.22-0.23,0.38-0.27,0.45c-0.02,0.03-0.03,0.05-0.05,0.08c-0.1,0.17-0.2,0.33-0.29,0.5c-0.06,0.1-0.11,0.2-0.17,0.3
						c0,0.01-0.01,0.02-0.01,0.02c-0.01,0.01-0.01,0.02-0.02,0.03c-0.09,0.16-0.18,0.32-0.27,0.49c-0.03,0.06-0.07,0.12-0.1,0.18
						c-0.51,0.96-0.95,1.96-1.32,3.01c-0.43,1.15-0.74,2.32-0.89,3.47c-0.05,0.28-0.1,0.58-0.14,0.85c-0.02,0.1-0.04,0.26-0.06,0.46
						c-0.02,0.18-0.04,0.34-0.05,0.52l0,0.02c0,0.01,0,0.03,0,0.04c-0.03,0.34-0.05,0.74-0.06,1.18c0-0.01,0-0.02,0-0.03
						c0,0.01,0,0.02,0,0.03c0,0,0,0,0,0.01c0,0,0,0,0,0c0,0,0,0.01,0,0.01l0-0.01c0,0,0,0.01,0,0.01c0,0.17,0,0.37,0.01,0.58
						c0,0.01,0,0.01,0,0.02c0,0.11,0.01,0.21,0.01,0.31l0,0.03c0,0,0,0.01,0,0.01c0,0.11,0.01,0.21,0.02,0.3
						c0.01,0.17,0.03,0.37,0.05,0.57c0,0.01,0,0.02,0,0.03c0,0.02,0.01,0.05,0.01,0.07c0,0.01,0,0.02,0,0.02
						c0.01,0.09,0.02,0.19,0.04,0.3c0.01,0.04,0.01,0.07,0.02,0.11c0.01,0.07,0.02,0.13,0.03,0.19c0,0.02,0.01,0.05,0.01,0.07
						c0,0,0,0.01,0,0.02c0.02,0.12,0.04,0.23,0.06,0.33c0.01,0.03,0.01,0.06,0.02,0.09l0.01,0.03c0,0.01,0.01,0.03,0.01,0.04
						c0.09,0.42,0.2,0.79,0.31,1.1c0.02,0.05,0.03,0.09,0.05,0.14c0-0.01,0-0.01-0.01-0.02l0.01,0.02c0.04,0.12,0.09,0.24,0.14,0.37
						l0.02,0.06c0.01,0.03,0.03,0.06,0.04,0.08c0,0,0,0,0,0l0.04,0.11c0.01,0.02,0.02,0.04,0.03,0.06c0.04,0.09,0.08,0.18,0.12,0.27
						c0.01,0.01,0.01,0.02,0.02,0.04c0.01,0.02,0.02,0.04,0.03,0.06c0.06,0.13,0.14,0.28,0.22,0.42c0.04,0.07,0.08,0.14,0.12,0.2
						c0.03,0.05,0.05,0.09,0.08,0.12c0.39,0.63,0.84,1.18,1.38,1.65c0.88,0.79,1.92,1.34,3.1,1.61c0.08,0.02,0.17,0.04,0.27,0.06
						c1.34,0.27,2.73,0.18,4.1-0.2c0.19-0.03,0.39-0.08,0.58-0.13c0.34,0.06,0.63-0.03,0.82-0.25c0.17-0.2,0.27-0.5,0.28-0.88
						c0-1.04-0.72-2.3-1.63-2.82c-0.23-0.13-0.45-0.2-0.66-0.22c-0.24-0.02-0.45,0.05-0.61,0.19c-0.02,0.01-0.04,0.01-0.06,0.02
						c-0.04,0.01-0.08,0.02-0.12,0.03c-0.12,0.03-0.24,0.05-0.36,0.07c0,0,0,0,0,0c-0.02,0-0.03,0.01-0.05,0.01
						c-0.06,0.01-0.12,0.02-0.18,0.03c-0.59,0.06-1.15,0.02-1.66-0.14c-0.02-0.01-0.05-0.02-0.07-0.03
						c-0.16-0.05-0.31-0.11-0.45-0.19c-0.56-0.34-0.96-0.84-1.24-1.38c-0.03-0.05-0.05-0.1-0.08-0.16
						c-0.03-0.06-0.05-0.12-0.08-0.17c-0.02-0.05-0.04-0.1-0.06-0.16c-0.23-0.6-0.34-1.22-0.4-1.77c-0.01-0.43-0.08-0.85-0.07-1.28
						c0.07-1.69,0.4-3.3,0.89-4.82c0.09-0.27,0.2-0.55,0.3-0.82c0.28-0.71,0.6-1.45,0.98-2.2l0.01-0.03
						c0.07-0.14,0.15-0.28,0.22-0.42l0.41-0.73l0.52-0.84c0.01-0.01,0.02-0.03,0.03-0.04l0.27-0.4c0.22-0.31,0.44-0.62,0.67-0.91
						c0.06-0.08,0.12-0.16,0.18-0.23c1.19-1.5,2.52-2.78,3.85-3.7c0.05-0.03,0.1-0.07,0.15-0.1c0.13-0.09,0.26-0.17,0.38-0.25
						c0.1-0.06,0.21-0.12,0.31-0.19c0.08-0.05,0.17-0.1,0.25-0.14c0.7-0.37,1.35-0.63,1.96-0.79c0.08-0.02,0.15-0.04,0.23-0.05
						c0.11-0.02,0.22-0.04,0.32-0.06c0.01,0,0.02,0,0.03-0.01c0.11-0.02,0.23-0.03,0.34-0.04c0.04,0,0.08-0.01,0.12-0.01
						c0.68-0.03,1.32,0.09,1.89,0.39c0.93,0.59,1.53,1.68,1.78,3.09l4.55,2.62C158.47,66.97,158.41,66.18,158.22,65.5z
						 M137.76,78.57c0-0.01,0-0.02,0-0.03c0,0,0,0,0,0s0,0,0,0c0,0,0,0,0,0L137.76,78.57z M138.76,73.41c0-0.01,0.01-0.02,0.01-0.03
						c0.01-0.02,0.02-0.05,0.03-0.07C138.78,73.34,138.77,73.37,138.76,73.41z"/>
				</g>
				<g>
					<path class="st13" d="M172.99,99.14c-0.4-0.23-0.77-0.35-1.11-0.37c-0.41-0.03-0.76,0.09-1.04,0.33
						c-0.38,0.32-0.62,0.87-0.63,1.62c0,1.76,1.23,3.9,2.76,4.78c0.32,0.18,0.62,0.28,0.91,0.33c0.57,0.1,1.07-0.05,1.4-0.43
						c0.29-0.34,0.46-0.84,0.47-1.49C175.75,102.16,174.51,100.03,172.99,99.14z"/>
					<path class="st4" d="M187.28,82.25c-0.03-0.38-0.09-0.79-0.18-1.21c0,0,0,0,0,0c-0.01-0.05-0.02-0.1-0.03-0.14l0-0.02
						c0,0,0-0.01,0-0.01c0-0.01,0-0.02-0.01-0.03c-0.02-0.09-0.04-0.18-0.06-0.26c-0.01-0.04-0.02-0.08-0.03-0.11
						c0-0.01,0-0.02,0-0.02c0,0,0-0.01,0-0.01c-0.01-0.03-0.02-0.06-0.02-0.09c-0.02-0.06-0.03-0.12-0.05-0.18
						c0-0.01-0.01-0.02-0.01-0.03c0-0.01,0-0.01,0-0.02c0-0.01,0-0.01-0.01-0.02c-0.03-0.11-0.06-0.21-0.09-0.31
						c-0.01-0.02-0.01-0.03-0.02-0.05c0,0,0-0.01,0-0.01c0-0.01-0.01-0.02-0.01-0.03c-0.03-0.08-0.05-0.16-0.08-0.24
						c-0.74-2.13-2.07-3.63-3.76-4.45c-0.05-0.03-0.11-0.05-0.17-0.08c-0.03-0.02-0.07-0.03-0.1-0.05
						c-0.02-0.01-0.04-0.02-0.05-0.02c-0.02-0.01-0.03-0.01-0.05-0.02c0,0-0.01,0-0.01,0l-0.01,0c-0.04-0.02-0.07-0.03-0.11-0.05
						c0,0,0,0,0,0c-0.26-0.11-0.5-0.19-0.71-0.25c-0.02-0.01-0.04-0.01-0.07-0.02c-0.05-0.01-0.09-0.03-0.15-0.04l-0.04-0.01
						l-0.17-0.04c-0.01,0-0.03-0.01-0.04-0.01c-0.04-0.01-0.07-0.02-0.11-0.03l-0.04-0.01c-0.03-0.01-0.06-0.01-0.09-0.02
						c-0.01,0-0.02,0-0.02-0.01l-0.04-0.01l0.06,0.01c-0.14-0.03-0.29-0.05-0.44-0.07c-0.07-0.01-0.14-0.01-0.21-0.02
						c-0.04,0-0.07-0.01-0.11-0.01c-0.08-0.01-0.17-0.01-0.24-0.02l-0.05,0l-0.18-0.01c-0.02,0-0.04,0-0.05,0c0,0-0.01,0-0.01,0
						l-0.04,0l0.05,0c-0.01,0-0.02,0-0.03,0c-0.05,0-0.1,0-0.15,0c0,0-0.01,0-0.01,0l-0.12,0c-0.16,0-0.33,0.01-0.52,0.02
						c-0.14,0.01-0.3,0.03-0.45,0.05c-0.05,0.01-0.09,0.01-0.13,0.02c-0.03,0-0.05,0.01-0.08,0.01c0,0,0,0,0,0l-0.04,0
						c-0.03,0.01-0.07,0.01-0.1,0.02c-0.18,0.03-0.35,0.06-0.52,0.1c-0.01,0-0.03,0.01-0.04,0.01l-0.02,0.01c0,0,0,0,0,0
						c-0.01,0-0.01,0-0.02,0c-0.07,0.01-0.46,0.09-1.05,0.29c-0.03,0.01-0.07,0.02-0.1,0.03c-0.04,0.01-0.08,0.03-0.12,0.04
						c-0.01,0-0.02,0.01-0.03,0.01c-0.53,0.14-1.12,0.4-1.76,0.75c-2.55,1.3-5.13,3.57-7.39,6.85c-0.03,0.05-0.06,0.09-0.09,0.13
						c-0.05,0.07-0.1,0.14-0.14,0.21c-0.07,0.11-0.15,0.22-0.22,0.34c-0.11,0.17-0.2,0.32-0.29,0.45c-0.01,0.01-0.01,0.02-0.02,0.03
						c-0.14,0.22-0.23,0.38-0.27,0.45c-0.02,0.03-0.03,0.05-0.05,0.08c-0.1,0.17-0.2,0.33-0.29,0.5c-0.06,0.1-0.11,0.2-0.17,0.3
						c0,0.01-0.01,0.02-0.01,0.02c-0.01,0.01-0.01,0.02-0.02,0.03c-0.09,0.16-0.18,0.32-0.27,0.49c-0.03,0.06-0.07,0.12-0.1,0.19
						c-0.51,0.96-0.95,1.96-1.32,3.01c-0.43,1.15-0.74,2.32-0.89,3.47c-0.05,0.28-0.1,0.58-0.14,0.85c-0.02,0.1-0.04,0.26-0.06,0.46
						c-0.02,0.18-0.04,0.34-0.05,0.52l0,0.02c0,0.01,0,0.03,0,0.04c-0.03,0.34-0.05,0.74-0.06,1.18c0-0.01,0-0.02,0-0.03
						c0,0.01,0,0.02,0,0.03c0,0,0,0,0,0.01c0,0,0,0,0,0c0,0,0,0.01,0,0.01l0-0.01c0,0,0,0.01,0,0.01c0,0.17,0,0.37,0.01,0.58
						c0,0.01,0,0.01,0,0.02c0,0.11,0.01,0.21,0.01,0.31l0,0.03c0,0,0,0.01,0,0.01c0,0.11,0.01,0.21,0.02,0.3
						c0.01,0.17,0.03,0.37,0.05,0.57c0,0.01,0,0.02,0,0.03c0,0.02,0.01,0.05,0.01,0.07c0,0.01,0,0.02,0,0.02
						c0.01,0.09,0.02,0.19,0.04,0.29c0.01,0.04,0.01,0.07,0.02,0.11c0.01,0.07,0.02,0.13,0.03,0.19c0,0.02,0.01,0.05,0.01,0.07
						c0,0,0,0.01,0,0.02c0.02,0.12,0.04,0.23,0.06,0.33c0.01,0.03,0.01,0.06,0.02,0.09l0.01,0.03c0,0.01,0.01,0.03,0.01,0.04
						c0.09,0.42,0.2,0.79,0.31,1.1c0.02,0.04,0.03,0.09,0.05,0.14c0-0.01,0-0.01-0.01-0.02l0.01,0.02c0.04,0.12,0.09,0.24,0.14,0.37
						l0.02,0.06c0.01,0.03,0.03,0.06,0.04,0.08c0,0,0,0,0,0l0.04,0.11c0.01,0.02,0.02,0.04,0.03,0.06c0.04,0.09,0.08,0.18,0.12,0.27
						c0.01,0.01,0.01,0.02,0.02,0.04c0.01,0.02,0.02,0.04,0.03,0.06c0.06,0.13,0.14,0.28,0.22,0.42c0.04,0.07,0.08,0.14,0.12,0.2
						c0.03,0.05,0.05,0.09,0.08,0.12c0.39,0.63,0.84,1.18,1.38,1.65c0.88,0.79,1.92,1.34,3.1,1.61c0.08,0.02,0.17,0.04,0.27,0.06
						c1.34,0.27,2.73,0.18,4.1-0.2c0.19-0.03,0.39-0.08,0.58-0.13c0.34,0.06,0.63-0.03,0.82-0.25c0.17-0.2,0.27-0.5,0.28-0.88
						c0-1.04-0.72-2.3-1.63-2.82c-0.23-0.13-0.45-0.2-0.66-0.22c-0.24-0.02-0.45,0.05-0.61,0.19c-0.02,0.01-0.04,0.01-0.06,0.02
						c-0.04,0.01-0.08,0.02-0.12,0.03c-0.12,0.03-0.24,0.05-0.36,0.07c0,0,0,0,0,0c-0.02,0-0.03,0.01-0.05,0.01
						c-0.06,0.01-0.12,0.02-0.18,0.03c-0.59,0.06-1.15,0.02-1.66-0.14c-0.02-0.01-0.05-0.02-0.07-0.03
						c-0.15-0.05-0.31-0.11-0.45-0.19c-0.56-0.34-0.96-0.84-1.24-1.38c-0.03-0.05-0.05-0.1-0.08-0.16
						c-0.03-0.06-0.05-0.12-0.08-0.17c-0.02-0.05-0.04-0.1-0.06-0.16c-0.23-0.6-0.34-1.22-0.4-1.77c-0.01-0.43-0.08-0.85-0.07-1.28
						c0.07-1.69,0.4-3.3,0.89-4.82c0.09-0.27,0.2-0.55,0.3-0.82c0.28-0.71,0.6-1.45,0.98-2.2l0.01-0.03
						c0.07-0.14,0.15-0.28,0.22-0.42l0.41-0.73l0.52-0.84c0.01-0.01,0.02-0.03,0.03-0.04l0.27-0.4c0.22-0.31,0.44-0.62,0.67-0.91
						c0.06-0.08,0.12-0.16,0.18-0.23c1.19-1.5,2.52-2.78,3.85-3.7c0.05-0.03,0.1-0.07,0.15-0.1c0.13-0.09,0.26-0.17,0.38-0.25
						c0.1-0.06,0.21-0.12,0.31-0.19c0.08-0.05,0.17-0.1,0.25-0.14c0.7-0.37,1.35-0.63,1.96-0.79c0.08-0.02,0.15-0.04,0.23-0.05
						c0.11-0.02,0.22-0.04,0.32-0.06c0.01,0,0.02,0,0.03-0.01c0.11-0.02,0.23-0.03,0.34-0.04c0.04,0,0.08-0.01,0.12-0.01
						c0.68-0.03,1.32,0.09,1.89,0.39c0.93,0.59,1.53,1.68,1.78,3.09l4.55,2.62C187.53,83.72,187.47,82.93,187.28,82.25z
						 M166.82,95.31c0-0.01,0-0.02,0-0.03c0,0,0,0,0,0s0,0,0,0c0,0,0,0,0,0L166.82,95.31z M167.82,90.15c0-0.01,0.01-0.02,0.01-0.03
						c0.01-0.02,0.02-0.05,0.03-0.07C167.84,90.09,167.83,90.12,167.82,90.15z"/>
				</g>
				<g>
					<path class="st13" d="M202.04,115.87c-0.4-0.23-0.77-0.35-1.11-0.37c-0.41-0.03-0.76,0.09-1.04,0.33
						c-0.38,0.32-0.62,0.87-0.63,1.62c0,1.76,1.23,3.9,2.76,4.78c0.32,0.18,0.62,0.28,0.91,0.33c0.57,0.1,1.07-0.05,1.4-0.43
						c0.29-0.34,0.46-0.84,0.47-1.49C204.8,118.89,203.57,116.76,202.04,115.87z"/>
					<path class="st4" d="M216.33,98.98c-0.03-0.38-0.09-0.79-0.18-1.21c0,0,0,0,0,0c-0.01-0.05-0.02-0.1-0.03-0.14l0-0.03
						c0,0,0-0.01,0-0.01c0-0.01,0-0.02-0.01-0.03c-0.02-0.09-0.04-0.18-0.06-0.26c-0.01-0.04-0.02-0.08-0.03-0.11
						c0-0.01,0-0.02,0-0.02c0,0,0-0.01,0-0.01c-0.01-0.03-0.02-0.06-0.02-0.09c-0.02-0.06-0.03-0.12-0.05-0.18
						c0-0.01-0.01-0.02-0.01-0.03c0-0.01,0-0.01,0-0.02c0-0.01,0-0.01-0.01-0.02c-0.03-0.11-0.06-0.21-0.09-0.31
						c-0.01-0.02-0.01-0.03-0.02-0.05c0,0,0-0.01,0-0.01c0-0.01-0.01-0.02-0.01-0.03c-0.03-0.08-0.05-0.16-0.08-0.24
						c-0.74-2.13-2.07-3.63-3.76-4.45c-0.05-0.03-0.11-0.05-0.17-0.08c-0.03-0.02-0.07-0.03-0.1-0.05
						c-0.02-0.01-0.04-0.02-0.05-0.02c-0.02-0.01-0.03-0.01-0.05-0.02c0,0-0.01,0-0.01,0l-0.01,0c-0.04-0.02-0.07-0.03-0.11-0.05
						c0,0,0,0,0,0c-0.26-0.11-0.5-0.19-0.71-0.25c-0.02-0.01-0.04-0.01-0.07-0.02c-0.05-0.01-0.09-0.03-0.15-0.04l-0.04-0.01
						l-0.17-0.04c-0.01,0-0.03-0.01-0.04-0.01c-0.04-0.01-0.07-0.02-0.11-0.03l-0.04-0.01c-0.03-0.01-0.06-0.01-0.09-0.02
						c-0.01,0-0.02,0-0.02-0.01L210,91.07l0.06,0.01c-0.14-0.03-0.29-0.05-0.44-0.07c-0.07-0.01-0.14-0.01-0.21-0.02
						c-0.04,0-0.07-0.01-0.11-0.01c-0.08-0.01-0.17-0.01-0.24-0.02l-0.05,0l-0.18-0.01c-0.02,0-0.04,0-0.05,0c0,0-0.01,0-0.01,0
						l-0.04,0l0.05,0c-0.01,0-0.02,0-0.03,0c-0.05,0-0.1,0-0.15,0c0,0-0.01,0-0.01,0l-0.12,0c-0.16,0-0.33,0.01-0.52,0.02
						c-0.14,0.01-0.3,0.03-0.45,0.05c-0.05,0.01-0.09,0.01-0.13,0.02c-0.03,0-0.05,0.01-0.08,0.01c0,0,0,0,0,0l-0.04,0
						c-0.03,0.01-0.07,0.01-0.1,0.02c-0.18,0.03-0.35,0.06-0.52,0.1c-0.01,0-0.03,0.01-0.04,0.01l-0.02,0.01c0,0,0,0,0,0
						c-0.01,0-0.01,0-0.02,0c-0.07,0.01-0.46,0.09-1.05,0.29c-0.03,0.01-0.07,0.02-0.1,0.03c-0.04,0.01-0.08,0.03-0.12,0.04
						c-0.01,0-0.02,0.01-0.03,0.01c-0.53,0.14-1.12,0.4-1.76,0.75c-2.55,1.3-5.13,3.57-7.39,6.85c-0.03,0.05-0.06,0.09-0.09,0.13
						c-0.05,0.07-0.1,0.14-0.14,0.21c-0.07,0.11-0.15,0.22-0.22,0.34c-0.11,0.17-0.2,0.32-0.29,0.45c-0.01,0.01-0.01,0.02-0.02,0.03
						c-0.14,0.22-0.23,0.38-0.27,0.45c-0.02,0.03-0.03,0.05-0.05,0.08c-0.1,0.17-0.2,0.33-0.29,0.5c-0.06,0.1-0.11,0.2-0.17,0.3
						c0,0.01-0.01,0.02-0.01,0.02c-0.01,0.01-0.01,0.02-0.02,0.03c-0.09,0.16-0.18,0.32-0.27,0.49c-0.03,0.06-0.07,0.12-0.1,0.18
						c-0.51,0.96-0.95,1.96-1.32,3.01c-0.43,1.15-0.74,2.32-0.89,3.47c-0.05,0.28-0.1,0.58-0.14,0.85c-0.02,0.1-0.04,0.26-0.06,0.46
						c-0.02,0.18-0.04,0.34-0.05,0.52l0,0.02c0,0.01,0,0.03,0,0.04c-0.03,0.34-0.05,0.74-0.06,1.18c0-0.01,0-0.02,0-0.03
						c0,0.01,0,0.02,0,0.03c0,0,0,0,0,0.01c0,0,0,0,0,0c0,0,0,0.01,0,0.01l0-0.01c0,0,0,0.01,0,0.01c0,0.17,0,0.37,0.01,0.58
						c0,0.01,0,0.01,0,0.02c0,0.11,0.01,0.21,0.01,0.31l0,0.03c0,0,0,0.01,0,0.01c0,0.11,0.01,0.21,0.02,0.3
						c0.01,0.17,0.03,0.37,0.05,0.57c0,0.01,0,0.02,0,0.03c0,0.02,0.01,0.05,0.01,0.07c0,0.01,0,0.02,0,0.02
						c0.01,0.09,0.02,0.19,0.04,0.3c0.01,0.04,0.01,0.07,0.02,0.11c0.01,0.07,0.02,0.13,0.03,0.19c0,0.02,0.01,0.05,0.01,0.07
						c0,0,0,0.01,0,0.02c0.02,0.12,0.04,0.23,0.06,0.33c0.01,0.03,0.01,0.06,0.02,0.09l0.01,0.03c0,0.01,0.01,0.03,0.01,0.04
						c0.09,0.42,0.2,0.79,0.31,1.1c0.02,0.05,0.03,0.09,0.05,0.14c0-0.01,0-0.01-0.01-0.02l0.01,0.02c0.04,0.12,0.09,0.24,0.14,0.37
						l0.02,0.06c0.01,0.03,0.03,0.06,0.04,0.08c0,0,0,0,0,0l0.04,0.11c0.01,0.02,0.02,0.04,0.03,0.06c0.04,0.09,0.08,0.18,0.12,0.27
						c0.01,0.01,0.01,0.02,0.02,0.04c0.01,0.02,0.02,0.04,0.03,0.06c0.06,0.13,0.14,0.28,0.22,0.42c0.04,0.07,0.08,0.14,0.12,0.2
						c0.03,0.05,0.05,0.09,0.08,0.12c0.39,0.63,0.84,1.18,1.38,1.65c0.88,0.79,1.92,1.34,3.1,1.61c0.08,0.02,0.17,0.04,0.27,0.06
						c1.34,0.27,2.73,0.18,4.1-0.2c0.19-0.03,0.39-0.08,0.58-0.13c0.34,0.06,0.63-0.03,0.82-0.25c0.17-0.2,0.27-0.5,0.28-0.88
						c0-1.04-0.72-2.3-1.63-2.82c-0.23-0.13-0.45-0.2-0.66-0.22c-0.24-0.02-0.45,0.05-0.61,0.19c-0.02,0.01-0.04,0.01-0.06,0.02
						c-0.04,0.01-0.08,0.02-0.12,0.03c-0.12,0.03-0.24,0.05-0.36,0.07c0,0,0,0,0,0c-0.02,0-0.03,0.01-0.05,0.01
						c-0.06,0.01-0.12,0.02-0.18,0.03c-0.59,0.06-1.15,0.02-1.66-0.14c-0.02-0.01-0.05-0.02-0.07-0.03
						c-0.15-0.05-0.31-0.11-0.45-0.19c-0.56-0.34-0.96-0.84-1.24-1.38c-0.03-0.05-0.05-0.1-0.08-0.16
						c-0.03-0.06-0.05-0.12-0.08-0.17c-0.02-0.05-0.04-0.1-0.06-0.16c-0.23-0.6-0.34-1.22-0.4-1.77c-0.01-0.43-0.08-0.85-0.07-1.28
						c0.07-1.69,0.4-3.3,0.89-4.82c0.09-0.27,0.2-0.55,0.3-0.82c0.28-0.71,0.6-1.45,0.98-2.2l0.01-0.03
						c0.07-0.14,0.15-0.28,0.22-0.42l0.41-0.73l0.52-0.84c0.01-0.01,0.02-0.03,0.03-0.04l0.27-0.4c0.22-0.31,0.44-0.62,0.67-0.91
						c0.06-0.08,0.12-0.16,0.18-0.23c1.19-1.5,2.52-2.78,3.85-3.7c0.05-0.03,0.1-0.07,0.15-0.1c0.13-0.09,0.26-0.17,0.38-0.25
						c0.1-0.06,0.21-0.12,0.31-0.19c0.08-0.05,0.17-0.1,0.25-0.14c0.7-0.37,1.35-0.63,1.96-0.79c0.08-0.02,0.15-0.04,0.23-0.05
						c0.11-0.02,0.22-0.04,0.32-0.06c0.01,0,0.02,0,0.03-0.01c0.11-0.02,0.23-0.03,0.34-0.04c0.04,0,0.08-0.01,0.12-0.01
						c0.68-0.03,1.32,0.09,1.89,0.39c0.93,0.59,1.53,1.68,1.78,3.09l4.55,2.62C216.59,100.45,216.53,99.65,216.33,98.98z
						 M195.88,112.04c0-0.01,0-0.02,0-0.03v0c0,0,0,0,0,0c0,0,0,0,0,0L195.88,112.04z M196.87,106.88c0-0.01,0.01-0.02,0.01-0.03
						c0.01-0.02,0.02-0.05,0.03-0.07C196.9,106.82,196.88,106.85,196.87,106.88z"/>
				</g>
				<g>
					<path class="st13" d="M231.1,132.63c-0.4-0.23-0.77-0.35-1.11-0.37c-0.41-0.03-0.76,0.09-1.04,0.33
						c-0.38,0.32-0.62,0.87-0.63,1.62c-0.01,1.76,1.23,3.9,2.76,4.78c0.32,0.19,0.62,0.28,0.91,0.33c0.57,0.1,1.07-0.05,1.4-0.43
						c0.29-0.34,0.46-0.84,0.47-1.49C233.86,135.65,232.63,133.51,231.1,132.63z"/>
					<path class="st4" d="M245.39,115.74c-0.03-0.38-0.09-0.79-0.18-1.21c0,0,0,0,0,0c-0.01-0.05-0.02-0.1-0.03-0.14l0-0.02
						c0,0,0-0.01,0-0.01c0-0.01,0-0.02-0.01-0.03c-0.02-0.09-0.04-0.18-0.06-0.26c-0.01-0.04-0.02-0.08-0.03-0.11
						c0-0.01,0-0.02,0-0.02c0,0,0-0.01,0-0.01c-0.01-0.03-0.02-0.06-0.02-0.09c-0.02-0.06-0.03-0.12-0.05-0.18
						c0-0.01-0.01-0.02-0.01-0.03c0-0.01,0-0.01,0-0.02c0-0.01,0-0.01-0.01-0.02c-0.03-0.11-0.06-0.21-0.09-0.31
						c-0.01-0.02-0.01-0.03-0.02-0.05c0,0,0-0.01,0-0.01c0-0.01-0.01-0.02-0.01-0.03c-0.03-0.08-0.05-0.16-0.08-0.24
						c-0.74-2.13-2.07-3.63-3.76-4.45c-0.05-0.03-0.11-0.05-0.17-0.08c-0.03-0.02-0.07-0.03-0.1-0.05
						c-0.02-0.01-0.04-0.02-0.05-0.02c-0.02-0.01-0.03-0.01-0.05-0.02c0,0-0.01,0-0.01,0l-0.01,0c-0.04-0.02-0.07-0.03-0.11-0.05
						c0,0,0,0,0,0c-0.26-0.11-0.5-0.19-0.71-0.25c-0.02-0.01-0.04-0.01-0.07-0.02c-0.05-0.01-0.09-0.03-0.15-0.04l-0.04-0.01
						l-0.17-0.04c-0.01,0-0.03-0.01-0.04-0.01c-0.04-0.01-0.07-0.02-0.11-0.03l-0.04-0.01c-0.03-0.01-0.06-0.01-0.09-0.02
						c-0.01,0-0.02,0-0.02-0.01l-0.04-0.01l0.06,0.01c-0.14-0.03-0.29-0.05-0.44-0.07c-0.07-0.01-0.14-0.01-0.21-0.02
						c-0.04,0-0.07-0.01-0.11-0.01c-0.08-0.01-0.17-0.01-0.24-0.02l-0.05,0l-0.18-0.01c-0.02,0-0.04,0-0.05,0c0,0-0.01,0-0.01,0
						l-0.04,0l0.05,0c-0.01,0-0.02,0-0.03,0c-0.05,0-0.1,0-0.15,0c0,0-0.01,0-0.01,0l-0.12,0c-0.16,0-0.33,0.01-0.52,0.02
						c-0.14,0.01-0.3,0.03-0.45,0.05c-0.05,0.01-0.09,0.01-0.13,0.02c-0.03,0-0.05,0.01-0.08,0.01c0,0,0,0,0,0l-0.04,0
						c-0.03,0.01-0.07,0.01-0.1,0.02c-0.18,0.03-0.35,0.06-0.52,0.1c-0.01,0-0.03,0.01-0.04,0.01l-0.02,0.01c0,0,0,0,0,0
						c-0.01,0-0.01,0-0.02,0c-0.07,0.01-0.46,0.09-1.05,0.29c-0.03,0.01-0.07,0.02-0.1,0.03c-0.04,0.01-0.08,0.03-0.12,0.04
						c-0.01,0-0.02,0.01-0.03,0.01c-0.53,0.14-1.12,0.4-1.76,0.75c-2.55,1.3-5.13,3.57-7.39,6.85c-0.03,0.05-0.06,0.09-0.09,0.13
						c-0.05,0.07-0.1,0.14-0.14,0.21c-0.07,0.11-0.15,0.22-0.22,0.34c-0.11,0.17-0.2,0.32-0.29,0.45c-0.01,0.01-0.01,0.02-0.02,0.03
						c-0.14,0.22-0.23,0.38-0.27,0.45c-0.02,0.03-0.03,0.05-0.05,0.08c-0.1,0.17-0.2,0.33-0.29,0.5c-0.06,0.1-0.11,0.2-0.17,0.3
						c0,0.01-0.01,0.02-0.01,0.02c-0.01,0.01-0.01,0.02-0.02,0.03c-0.09,0.16-0.18,0.32-0.27,0.49c-0.03,0.06-0.07,0.12-0.1,0.18
						c-0.51,0.96-0.95,1.96-1.32,3.01c-0.43,1.15-0.74,2.32-0.89,3.47c-0.05,0.28-0.1,0.58-0.14,0.85c-0.02,0.1-0.04,0.26-0.06,0.46
						c-0.02,0.18-0.04,0.34-0.05,0.52l0,0.02c0,0.01,0,0.03,0,0.04c-0.03,0.34-0.05,0.74-0.06,1.18c0-0.01,0-0.02,0-0.03
						c0,0.01,0,0.02,0,0.03c0,0,0,0,0,0.01c0,0,0,0,0,0c0,0,0,0.01,0,0.01l0-0.01c0,0,0,0.01,0,0.01c0,0.17,0,0.37,0.01,0.58
						c0,0.01,0,0.01,0,0.02c0,0.11,0.01,0.21,0.01,0.31l0,0.03c0,0,0,0.01,0,0.01c0,0.11,0.01,0.21,0.02,0.3
						c0.01,0.17,0.03,0.37,0.05,0.57c0,0.01,0,0.02,0,0.03c0,0.02,0.01,0.05,0.01,0.07c0,0.01,0,0.02,0,0.02
						c0.01,0.09,0.02,0.19,0.04,0.29c0.01,0.04,0.01,0.07,0.02,0.11c0.01,0.07,0.02,0.13,0.03,0.19c0,0.02,0.01,0.05,0.01,0.07
						c0,0,0,0.01,0,0.02c0.02,0.12,0.04,0.23,0.06,0.33c0.01,0.03,0.01,0.06,0.02,0.09l0.01,0.03c0,0.01,0.01,0.03,0.01,0.04
						c0.09,0.42,0.2,0.79,0.31,1.1c0.02,0.04,0.03,0.09,0.05,0.14c0-0.01,0-0.01-0.01-0.02l0.01,0.02c0.04,0.12,0.09,0.24,0.14,0.37
						l0.02,0.06c0.01,0.03,0.03,0.06,0.04,0.08c0,0,0,0,0,0l0.04,0.11c0.01,0.02,0.02,0.04,0.03,0.06c0.04,0.09,0.08,0.18,0.12,0.27
						c0.01,0.01,0.01,0.02,0.02,0.04c0.01,0.02,0.02,0.04,0.03,0.06c0.06,0.13,0.14,0.28,0.22,0.42c0.04,0.07,0.08,0.14,0.12,0.2
						c0.03,0.05,0.05,0.09,0.08,0.12c0.39,0.63,0.84,1.18,1.38,1.65c0.88,0.79,1.92,1.34,3.1,1.61c0.08,0.02,0.17,0.04,0.27,0.06
						c1.34,0.27,2.73,0.18,4.1-0.2c0.19-0.03,0.39-0.08,0.58-0.13c0.34,0.06,0.63-0.03,0.82-0.25c0.17-0.2,0.27-0.5,0.28-0.88
						c0-1.04-0.72-2.3-1.63-2.82c-0.23-0.13-0.45-0.2-0.66-0.22c-0.24-0.02-0.45,0.05-0.61,0.19c-0.02,0.01-0.04,0.01-0.06,0.02
						c-0.04,0.01-0.08,0.02-0.12,0.03c-0.12,0.03-0.24,0.05-0.36,0.07c0,0,0,0,0,0c-0.02,0-0.03,0.01-0.05,0.01
						c-0.06,0.01-0.12,0.02-0.18,0.03c-0.59,0.06-1.15,0.02-1.66-0.14c-0.02-0.01-0.05-0.02-0.07-0.03
						c-0.15-0.05-0.31-0.11-0.45-0.19c-0.56-0.34-0.96-0.84-1.24-1.38c-0.03-0.05-0.05-0.1-0.08-0.16
						c-0.03-0.06-0.05-0.12-0.08-0.17c-0.02-0.05-0.04-0.1-0.06-0.16c-0.23-0.6-0.34-1.22-0.4-1.77c-0.01-0.43-0.08-0.85-0.07-1.28
						c0.07-1.69,0.4-3.3,0.89-4.82c0.09-0.27,0.2-0.55,0.3-0.82c0.28-0.71,0.6-1.45,0.98-2.2l0.01-0.03
						c0.07-0.14,0.15-0.28,0.22-0.42l0.41-0.73l0.52-0.84c0.01-0.01,0.02-0.03,0.03-0.04l0.27-0.4c0.22-0.31,0.44-0.62,0.67-0.91
						c0.06-0.08,0.12-0.16,0.18-0.23c1.19-1.5,2.52-2.78,3.85-3.7c0.05-0.03,0.1-0.07,0.15-0.1c0.13-0.09,0.26-0.17,0.38-0.25
						c0.1-0.06,0.21-0.12,0.31-0.19c0.08-0.05,0.17-0.1,0.25-0.14c0.7-0.37,1.35-0.63,1.96-0.79c0.08-0.02,0.15-0.04,0.23-0.05
						c0.11-0.02,0.22-0.04,0.32-0.06c0.01,0,0.02,0,0.03-0.01c0.11-0.02,0.23-0.03,0.34-0.04c0.04,0,0.08-0.01,0.12-0.01
						c0.68-0.03,1.32,0.09,1.89,0.39c0.93,0.59,1.53,1.68,1.78,3.09l4.55,2.62C245.64,117.2,245.59,116.41,245.39,115.74z
						 M224.94,128.8c0-0.01,0-0.02,0-0.03c0,0,0,0,0,0s0,0,0,0c0,0,0,0,0,0L224.94,128.8z M225.93,123.64
						c0-0.01,0.01-0.02,0.01-0.03c0.01-0.02,0.02-0.05,0.03-0.07C225.96,123.57,225.94,123.6,225.93,123.64z"/>
				</g>
			</g>
			<g>
				<path class="st6" d="M292.66,342.56l126.43,72.99c1.62,0.94,3.62,0.94,5.25,0l6.32-3.65c1.4-0.81,1.4-2.83,0-3.64l-126.71-72.84
					c-1.62-0.93-3.62-0.93-5.24,0l-6.04,3.49C291.26,339.74,291.26,341.75,292.66,342.56z"/>
				<g>
					<g>
						<g>
							<path class="st15" d="M291.73,75.25L291.73,75.25c0.85-3.02,6.96-8.74,13.04-8.62c0.22,0,1.31,0.11,1.71,0.33l118.16,67.22
								c2.01,1.14,3.56,2.86,4.54,4.87c0.74,1.52,1.17,3.2,1.17,4.96v255.58c0,6.51-7.51,12.72-14.56,9.73
								c-0.02-0.01-0.03-0.02-0.05-0.03c-0.15-0.06-0.31-0.1-0.45-0.18l-118.16-67.33c-3.53-2.01-5.71-5.76-5.71-9.82V76.48
								C291.43,76.02,291.55,75.61,291.73,75.25z"/>
							<path class="st17" d="M413.87,171.02c0-2.03-1.09-3.91-2.86-4.91L301.3,103.69c-1.88-1.07-4.22,0.29-4.22,2.46v206.09
								c0,2.03,1.09,3.91,2.85,4.91l109.71,62.52c1.88,1.07,4.22-0.29,4.22-2.45V171.02z"/>
							<path class="st20" d="M430.35,144v255.58c0,6.51-7.51,12.72-14.56,9.73c-0.02-0.01-0.03-0.02-0.05-0.03
								c1.79,0.65,3.77-0.64,3.77-2.64V151.07c0-2.26-0.7-4.42-1.91-6.24l11.57-5.78C429.92,140.57,430.35,142.25,430.35,144z"/>
							<path class="st21" d="M304.77,66.62c0.22,0,1.31,0.11,1.71,0.33l118.16,67.22c2.01,1.14,3.56,2.86,4.54,4.87l-11.57,5.78
								c-0.96-1.45-2.24-2.69-3.81-3.58L295.65,74.02c-1.49-0.85-3.24-0.16-3.92,1.22l-0.01-0.01
								C292.58,72.23,298.69,66.5,304.77,66.62z"/>
							<g>
								<g>
									<g>
										<path class="st18" d="M340.91,116.23c-0.83-0.48-1.52-0.11-1.52,0.85c0,0.95,0.68,2.14,1.51,2.62l23.18,13.38
											c0.83,0.48,1.5,0.08,1.5-0.88c0-0.95-0.66-2.11-1.49-2.58L340.91,116.23z"/>
									</g>
									<g>
										<path class="st18" d="M370.05,133.05c-0.83-0.48-1.5-0.1-1.5,0.86c0,0.95,0.66,2.13,1.49,2.61
											c0.83,0.48,1.52,0.09,1.52-0.87C371.56,134.69,370.88,133.53,370.05,133.05z"/>
									</g>
								</g>
								<g>
									<path class="st18" d="M355.21,114.28c-1.66-0.96-3-0.19-3,1.71c-0.01,1.9,1.32,4.25,2.98,5.21
										c1.66,0.96,3.03,0.17,3.04-1.73C358.23,117.56,356.86,115.24,355.21,114.28z"/>
								</g>
								<g>
									<path class="st18" d="M355.2,354.89c-3.38-1.95-6.1-0.4-6.11,3.48c-0.01,3.88,2.7,8.65,6.07,10.6
										c3.38,1.95,6.18,0.35,6.19-3.53C361.36,361.57,358.58,356.83,355.2,354.89z"/>
								</g>
							</g>
						</g>
					</g>
					<g>
						<path class="st0" d="M330.6,156.26c0-0.42-0.23-0.81-0.59-1.02l-22.7-12.92c-0.39-0.22-0.87,0.06-0.87,0.51v25.73
							c0,0.42,0.23,0.81,0.59,1.02l22.7,12.94c0.39,0.22,0.87-0.06,0.87-0.51V156.26z"/>
						<g>
							<polygon class="st16" points="403,197.47 339.39,160.74 339.39,164.76 403,201.48 							"/>
							<polygon class="st16" points="403,204.81 339.39,168.09 339.39,172.1 403,208.83 							"/>
							<polygon class="st16" points="403,212.16 339.39,175.43 339.39,179.44 403,216.17 							"/>
							<polygon class="st16" points="339.39,182.77 339.39,186.79 361.55,199.58 361.55,195.57 							"/>
						</g>
						<path class="st0" d="M330.6,197.71c0-0.42-0.23-0.81-0.59-1.02l-22.7-12.92c-0.39-0.22-0.87,0.06-0.87,0.51v25.73
							c0,0.42,0.23,0.81,0.59,1.02l22.7,12.94c0.39,0.22,0.87-0.06,0.87-0.51V197.71z"/>
						<g>
							<polygon class="st16" points="403,238.92 339.39,202.19 339.39,206.2 403,242.93 							"/>
							<polygon class="st16" points="403,246.26 339.39,209.53 339.39,213.55 403,250.27 							"/>
							<polygon class="st16" points="339.39,216.88 339.39,220.89 381.74,245.35 381.74,241.33 							"/>
						</g>
						<path class="st0" d="M330.6,239.16c0-0.42-0.23-0.81-0.59-1.02l-22.7-12.92c-0.39-0.22-0.87,0.06-0.87,0.51v25.73
							c0,0.42,0.23,0.81,0.59,1.02l22.7,12.94c0.39,0.22,0.87-0.06,0.87-0.51V239.16z"/>
						<g>
							<polygon class="st16" points="403,280.37 339.39,243.64 339.39,247.65 403,284.38 							"/>
							<polygon class="st16" points="403,287.71 339.39,250.98 339.39,255 403,291.72 							"/>
							<polygon class="st16" points="339.39,258.33 339.39,262.34 349.4,268.12 349.4,264.11 							"/>
						</g>
						<path class="st0" d="M330.6,280.61c0-0.42-0.23-0.81-0.59-1.02l-22.7-12.92c-0.39-0.22-0.87,0.06-0.87,0.51v25.73
							c0,0.42,0.23,0.81,0.59,1.02l22.7,12.94c0.39,0.22,0.87-0.06,0.87-0.51V280.61z"/>
						<g>
							<polygon class="st16" points="403,321.81 339.39,285.09 339.39,289.1 403,325.83 							"/>
							<polygon class="st16" points="403,329.16 339.39,292.43 339.39,296.45 403,333.17 							"/>
							<polygon class="st16" points="403,336.5 339.39,299.78 339.39,303.79 403,340.52 							"/>
							<polygon class="st16" points="339.39,306.95 339.39,310.96 379.39,334.06 379.39,330.04 							"/>
						</g>
						<g>
							<polygon class="st22" points="326.17,157.92 328.27,161.55 315.48,168.84 308.77,157.21 310.88,156.01 315.5,164 							"/>
						</g>
						<g>
							<polygon class="st22" points="326.17,199.37 328.27,203 315.48,210.28 308.77,198.66 310.88,197.46 315.5,205.45 							"/>
						</g>
						<g>
							<polygon class="st22" points="326.17,240.81 328.27,244.45 315.48,251.73 308.77,240.11 310.88,238.91 315.5,246.9 							
								"/>
						</g>
						<g>
							<polygon class="st22" points="326.17,282.26 328.27,285.9 315.48,293.18 308.77,281.56 310.88,280.36 315.5,288.35 							
								"/>
						</g>
					</g>
				</g>
			</g>
			<g>
				<path class="st6" d="M187.29,366.28l102.62,58.98c1.62,0.94,3.62,0.94,5.25,0l31.88-19.16c1.4-0.81,1.4-2.83,0-3.64
					l-102.9-58.82c-1.62-0.93-3.62-0.93-5.24,0.01l-31.6,19C185.89,363.45,185.89,365.47,187.29,366.28z"/>
				<g>
					<g>
						<path class="st18" d="M283.64,369.46c-1.67-0.23-3.85,0.65-4.88,1.98c-0.51,0.66-0.64,1.31-0.43,1.82l0,0l11.93,29.44
							c0.21,0.51,0.76,0.88,1.59,1c1.66,0.23,3.85-0.65,4.87-1.97c0.51-0.66,0.64-1.31,0.43-1.82l0,0l-11.93-29.44l0,0
							C285.02,369.95,284.47,369.57,283.64,369.46z"/>
						<path class="st18" d="M216.11,379.31c-1.67,0.23-3.85-0.65-4.88-1.98c-0.51-0.66-0.64-1.31-0.43-1.82l0,0l11.93-29.44
							c0.21-0.51,0.76-0.88,1.59-1c1.66-0.23,3.85,0.65,4.87,1.97c0.51,0.66,0.64,1.31,0.43,1.82l0,0l-11.93,29.44l0,0
							C217.48,378.82,216.94,379.19,216.11,379.31z"/>
					</g>
					<path class="st20" d="M237.49,254.69c-9.16-5.29-17.81-7.76-25.48-7.74c-18.47,0.06-31.18,14.7-31.25,40.06
						c-0.1,35.88,25.13,79.58,56.36,97.62c22.65,13.08,42.22,9.04,51.31-7.85c3.44-6.4,5.39-14.62,5.41-24.48
						C293.95,316.42,268.71,272.72,237.49,254.69z"/>
					
						<ellipse transform="matrix(0.8646 -0.5025 0.5025 0.8646 -124.961 165.873)" class="st0" cx="245.3" cy="314.8" rx="46.17" ry="79.7"/>
					<g>
						<g>
							<polygon class="st20" points="246.87,260.04 246.84,269.83 244.01,268.2 244.04,258.41 							"/>
						</g>
						<g>
							<polygon class="st20" points="222.48,252.6 226.71,263.54 224.25,263.75 220.02,252.82 							"/>
						</g>
						<g>
							<polygon class="st20" points="204.21,261.83 211.57,270.98 210.14,272.98 202.77,263.84 							"/>
						</g>
						<g>
							<polygon class="st20" points="205.45,290.17 205.44,293.43 196.92,288.51 196.93,285.25 							"/>
						</g>
						<g>
							<polygon class="st20" points="210.01,315.95 211.43,319.59 204.04,320.23 202.62,316.58 							"/>
						</g>
						<g>
							<polygon class="st20" points="224.03,341.42 226.48,344.47 222.21,350.49 219.75,347.44 							"/>
						</g>
						<g>
							<polygon class="st20" points="246.58,361.41 246.56,371.19 243.72,369.56 243.75,359.77 							"/>
						</g>
						<g>
							<polygon class="st20" points="266.34,365.85 270.57,376.78 268.11,376.99 263.87,366.06 							"/>
						</g>
						<g>
							<polygon class="st20" points="280.45,356.61 287.81,365.77 286.39,367.77 279.03,358.62 							"/>
						</g>
						<g>
							<polygon class="st20" points="293.66,341.09 293.65,344.35 285.14,339.44 285.15,336.18 							"/>
						</g>
						<g>
							<polygon class="st20" points="286.55,309.38 287.96,313.02 280.57,313.65 279.16,310.01 							"/>
						</g>
						<g>
							<polygon class="st20" points="268.39,279.11 270.84,282.16 266.56,288.18 264.1,285.12 							"/>
						</g>
					</g>
					<g>
						<g>
							<path class="st20" d="M247.12,321.06l16.3,39.58l0.37,4.24l-2.97-3.88l-16.3-39.58
								C245.54,321.68,246.43,321.54,247.12,321.06z"/>
						</g>
						<g>
							<path class="st22" d="M267.12,316.45l3.54,2.45l-2.49,1.5l-19.66-3.12c0.01,0.13,0.02,0.27,0.02,0.4
								c0,0.21-0.01,0.41-0.03,0.6c-0.01,0.08-0.02,0.16-0.03,0.23c-0.01,0.11-0.03,0.22-0.04,0.31c-0.02,0.1-0.04,0.19-0.07,0.29
								c-0.02,0.07-0.03,0.14-0.05,0.21c-0.03,0.11-0.07,0.2-0.12,0.3l-0.05,0.14c-0.05,0.11-0.1,0.22-0.16,0.32l-0.04,0.08
								c-0.07,0.11-0.13,0.21-0.2,0.3c-0.12,0.13-0.2,0.23-0.29,0.32c-0.11,0.11-0.21,0.18-0.32,0.26c-0.69,0.49-1.58,0.62-2.6,0.37
								c-0.22-0.06-0.44-0.13-0.66-0.23l-0.11-0.04c-0.24-0.1-0.47-0.21-0.71-0.35c-3.03-1.75-5.47-5.98-5.46-9.45
								c0.01-3.48,2.47-4.88,5.49-3.13c0.21,0.12,0.42,0.25,0.62,0.4c0.06,0.04,0.12,0.09,0.18,0.14c0.15,0.11,0.29,0.22,0.43,0.33
								c0.07,0.06,0.13,0.11,0.19,0.17c0.14,0.12,0.28,0.26,0.41,0.38l0.16,0.16c0.16,0.16,0.31,0.33,0.46,0.51
								c0.81,0.95,1.45,1.95,1.94,3.01L267.12,316.45z"/>
						</g>
					</g>
					<g>
						<path class="st20" d="M244.89,316.15c0-1.48-1.04-3.28-2.32-4.03c-0.58-0.33-1.1-0.38-1.51-0.22l-0.01-0.01l-0.06,0.04
							c-0.05,0.03-0.1,0.06-0.15,0.09l-3.54,2.1l0,0c0.42-0.22,0.99-0.18,1.62,0.18c1.29,0.74,2.33,2.55,2.32,4.03
							c0,0.71-0.25,1.21-0.64,1.46l0,0l3.57-2.13c0.02-0.01,0.04-0.02,0.06-0.03l0.04-0.03l0-0.01
							C244.65,317.33,244.89,316.84,244.89,316.15z"/>
						<path class="st23" d="M241.25,318.33c0-1.48-1.04-3.28-2.32-4.03c-0.63-0.36-1.2-0.4-1.62-0.18
							c-0.44,0.23-0.72,0.76-0.72,1.51c0,1.48,1.04,3.28,2.32,4.03c0.67,0.39,1.27,0.4,1.7,0.13
							C241,319.53,241.25,319.04,241.25,318.33z"/>
					</g>
					<path class="st20" d="M307.96,278.57c-11.16-19.33-26.12-35.07-42.12-44.31c-9.84-5.68-19.39-8.56-28.38-8.56
						c-6.59,0-12.49,1.54-17.57,4.41l-0.01-0.01l-0.43,0.26c-0.32,0.19-0.63,0.37-0.95,0.57l-24.69,14.83
						c5.23-3.14,11.39-4.83,18.3-4.83c8.99,0,18.54,2.88,28.38,8.56c16,9.24,30.96,24.97,42.12,44.31
						c11.17,19.34,17.29,40.12,17.24,58.52c-0.05,18.62-6.57,32.84-17.57,40.28l23.91-14.31c0.15-0.09,0.3-0.18,0.45-0.27l0.07-0.04
						l0,0c11.57-7.26,18.44-21.76,18.49-40.89C325.25,318.69,319.12,297.91,307.96,278.57z"/>
					<path class="st23" d="M282.61,293.8c-11.16-19.33-26.12-35.07-42.12-44.31c-9.84-5.68-19.39-8.56-28.38-8.56
						c-6.91,0-13.06,1.69-18.3,4.83l-0.53,0.32c-0.03,0.02-0.05,0.04-0.08,0.05c-11.54,7.27-18.39,21.76-18.45,40.86
						c-0.05,18.4,6.07,39.18,17.23,58.52c11.16,19.34,26.12,35.07,42.13,44.31c9.84,5.68,19.38,8.56,28.37,8.56
						c6.21,0,11.81-1.37,16.69-3.93c0.03-0.01,0.05-0.03,0.08-0.04l3.02-1.82c11.01-7.44,17.52-21.67,17.57-40.28
						C299.9,333.92,293.78,313.14,282.61,293.8z M237.12,384.63c-31.23-18.03-56.46-61.74-56.36-97.62
						c0.07-25.36,12.78-40,31.25-40.06c7.67-0.02,16.32,2.45,25.48,7.74c31.22,18.03,56.46,61.73,56.36,97.62
						c-0.03,9.85-1.97,18.08-5.41,24.48C279.34,393.67,259.77,397.71,237.12,384.63z"/>
					<path class="st24" d="M324.88,329.66l-25.4,14.66c0.24,2.71,0.37,5.38,0.36,8c-0.02,7.17-1.01,13.69-2.84,19.42l25.1-14.49
						c1.98-5.91,3.06-12.68,3.08-20.16C325.2,334.65,325.09,332.17,324.88,329.66z"/>
					<g class="st24">
						<path class="st0" d="M269.26,236.36l-25.83,14.91c7.4,4.68,14.54,10.75,21.13,17.89l25.7-14.84
							C283.71,247.16,276.62,241.08,269.26,236.36z"/>
						<path class="st0" d="M297.65,263.14l-25.66,14.82c1.81,2.34,3.56,4.76,5.25,7.27l25.64-14.8
							C301.19,267.91,299.45,265.48,297.65,263.14z"/>
					</g>
				</g>
			</g>
			<g>
				<path class="st6" d="M67.26,345.57l91.95,53.2c1.36,0.78,3.03,0.78,4.39,0l5.29-3.05c1.17-0.68,1.17-2.37,0-3.04l-91.74-52.81
					l-13.82-3.97c-0.93-0.27-1.69,0.75-1.18,1.57L67.26,345.57z"/>
				<g>
					<path class="st20" d="M65.46,330.17l-2.94-0.51c-0.54-0.09-0.92,0.5-0.62,0.95l2.04,3.01
						C63.75,332.15,64.26,330.67,65.46,330.17z"/>
					<path class="st25" d="M75.55,331.93l-10.09-1.77c-1.2,0.51-1.71,1.98-1.52,3.45l5.61,8.27L75.55,331.93z"/>
					<g>
						<g class="st10">
							<g>
								<path class="st25" d="M164.83,385.6c2.41-1.39,4.37-0.28,4.38,2.5c0.01,2.77-1.94,6.14-4.35,7.54
									c-2.41,1.39-4.37,0.27-4.38-2.5C160.47,390.36,162.42,386.99,164.83,385.6z"/>
							</g>
							<path class="st15" d="M111.14,352.29l-7.16-4.16l-27.36-15.9c-0.01,0-0.02-0.01-0.02-0.01c-0.07-0.04-0.14-0.08-0.22-0.11
								c-0.01-0.01-0.03-0.01-0.04-0.02c-0.02-0.01-0.05-0.02-0.07-0.03c-0.04-0.01-0.07-0.03-0.11-0.04
								c-0.04-0.01-0.08-0.02-0.13-0.03c-0.03-0.01-0.05-0.01-0.08-0.02c-0.01,0-0.03-0.01-0.04-0.01
								c-0.09-0.01-0.17-0.03-0.26-0.03c-0.01,0-0.01,0-0.02,0c-0.02,0-0.04,0-0.07,0c-0.07,0-0.14,0-0.21,0
								c-0.02,0-0.05,0.01-0.07,0.01c-0.04,0-0.09,0.01-0.13,0.01c-0.04,0-0.08,0.01-0.12,0.01c-0.04,0.01-0.07,0.02-0.11,0.02
								c-0.06,0.01-0.12,0.02-0.18,0.04c-0.03,0.01-0.06,0.01-0.1,0.02c-0.07,0.02-0.15,0.04-0.22,0.07c-0.01,0-0.01,0-0.02,0.01
								c-0.09,0.03-0.18,0.06-0.27,0.1c-0.04,0.01-0.07,0.03-0.11,0.05c-0.03,0.01-0.07,0.03-0.1,0.05
								c-0.13,0.06-0.27,0.13-0.4,0.21c-0.14,0.08-0.28,0.17-0.42,0.26c-0.04,0.03-0.09,0.06-0.13,0.1
								c-0.09,0.07-0.18,0.13-0.27,0.21c-0.05,0.04-0.1,0.08-0.15,0.12c-0.08,0.07-0.17,0.14-0.25,0.22
								c-0.05,0.04-0.1,0.09-0.15,0.14c-0.03,0.03-0.06,0.06-0.09,0.09c-0.03,0.03-0.06,0.07-0.09,0.1c-0.1,0.1-0.2,0.2-0.29,0.31
								c-0.03,0.03-0.06,0.06-0.09,0.1c-0.03,0.03-0.05,0.06-0.07,0.09c-0.06,0.07-0.11,0.14-0.17,0.21
								c-0.04,0.05-0.08,0.09-0.11,0.14c-0.03,0.04-0.06,0.08-0.09,0.12c-0.04,0.05-0.08,0.11-0.12,0.16
								c-0.03,0.04-0.06,0.08-0.08,0.11c-0.05,0.06-0.09,0.13-0.13,0.2c-0.03,0.04-0.06,0.08-0.08,0.13
								c-0.01,0.02-0.02,0.04-0.04,0.05c-0.08,0.12-0.15,0.24-0.23,0.37c0,0.01-0.01,0.02-0.01,0.02c-0.01,0.02-0.03,0.05-0.04,0.07
								c-0.05,0.09-0.1,0.18-0.15,0.27c-0.02,0.04-0.04,0.08-0.06,0.13c-0.02,0.04-0.04,0.09-0.07,0.13
								c-0.02,0.04-0.04,0.08-0.06,0.12c-0.05,0.1-0.1,0.2-0.14,0.31c-0.01,0.02-0.02,0.04-0.03,0.06c0,0.01,0,0.01-0.01,0.02
								c-0.06,0.13-0.11,0.26-0.16,0.39c-0.01,0.02-0.02,0.05-0.03,0.07c-0.02,0.05-0.03,0.1-0.05,0.14
								c-0.02,0.07-0.05,0.13-0.07,0.2c-0.02,0.05-0.03,0.1-0.05,0.15c-0.02,0.06-0.04,0.12-0.06,0.18
								c-0.01,0.04-0.02,0.07-0.03,0.11c-0.02,0.07-0.03,0.13-0.05,0.2c-0.02,0.07-0.04,0.15-0.06,0.22
								c-0.01,0.03-0.01,0.05-0.02,0.08c-0.01,0.05-0.02,0.11-0.03,0.16c-0.02,0.12-0.04,0.23-0.06,0.35c0,0.03-0.01,0.06-0.02,0.1
								c-0.01,0.07-0.01,0.14-0.02,0.22c0,0.05-0.01,0.1-0.01,0.15c-0.01,0.16-0.02,0.32-0.02,0.48c0,1.38,0.49,2.34,1.27,2.8
								l27.57,16.02l6.74,3.92l57.01,33.13c-0.78-0.46-1.27-1.42-1.27-2.8c0-0.16,0.01-0.32,0.02-0.48c0-0.05,0.01-0.1,0.02-0.15
								c0.01-0.1,0.02-0.21,0.04-0.31c0.02-0.12,0.04-0.23,0.06-0.35c0.01-0.08,0.03-0.16,0.05-0.24c0.02-0.07,0.04-0.15,0.06-0.22
								c0.03-0.1,0.05-0.21,0.08-0.31c0.02-0.06,0.04-0.12,0.06-0.18c0.04-0.12,0.08-0.23,0.12-0.35c0.02-0.05,0.03-0.1,0.05-0.14
								c0.06-0.16,0.12-0.32,0.19-0.48c0.01-0.02,0.02-0.04,0.03-0.06c0.06-0.14,0.13-0.28,0.2-0.42c0.02-0.04,0.04-0.09,0.07-0.13
								c0.07-0.13,0.14-0.26,0.21-0.39c0.01-0.02,0.03-0.05,0.04-0.07c0.09-0.15,0.18-0.3,0.27-0.45c0.03-0.04,0.06-0.08,0.08-0.13
								c0.07-0.11,0.14-0.21,0.22-0.31c0.04-0.05,0.08-0.11,0.12-0.16c0.06-0.09,0.13-0.17,0.2-0.25c0.06-0.07,0.11-0.14,0.17-0.21
								c0.05-0.06,0.11-0.13,0.17-0.19c0.1-0.11,0.19-0.21,0.29-0.31c0.06-0.06,0.12-0.13,0.19-0.19c0.05-0.05,0.1-0.09,0.15-0.14
								c0.08-0.07,0.16-0.15,0.25-0.22c0.05-0.04,0.1-0.08,0.15-0.12c0.09-0.07,0.18-0.14,0.27-0.21c0.04-0.03,0.09-0.07,0.13-0.1
								c0.14-0.09,0.28-0.18,0.42-0.26c0.14-0.08,0.27-0.15,0.4-0.21c0.03-0.02,0.07-0.03,0.1-0.05c0.13-0.06,0.25-0.11,0.38-0.15
								c0.01,0,0.01,0,0.02-0.01c0.11-0.04,0.21-0.06,0.32-0.09c0.06-0.01,0.12-0.03,0.18-0.04c0.08-0.01,0.15-0.03,0.23-0.04
								c0.04-0.01,0.09-0.01,0.13-0.01c0.09-0.01,0.19-0.01,0.28-0.01c0.02,0,0.04,0,0.06,0c0.11,0.01,0.22,0.02,0.32,0.04
								c0.03,0,0.05,0.01,0.08,0.02c0.08,0.02,0.16,0.04,0.24,0.07c0.02,0.01,0.05,0.02,0.07,0.03c0.1,0.04,0.19,0.08,0.29,0.14
								L111.14,352.29z"/>
							<g>
								<path class="st20" d="M164.84,389.17c0.69-0.4,1.26-0.08,1.26,0.72c0,0.8-0.56,1.76-1.25,2.17
									c-0.69,0.4-1.26,0.08-1.26-0.72C163.59,390.54,164.15,389.57,164.84,389.17z"/>
							</g>
						</g>
					</g>
				</g>
			</g>
		</g>
	</g>
</g>
</svg>
